<?xml version="1.0" encoding="utf-8"?>
<!-- Generator: Adobe Illustrator 17.0.0, SVG Export Plug-In . SVG Version: 6.00 Build 0)  -->
<!DOCTYPE svg PUBLIC "-//W3C//DTD SVG 1.1//EN" "http://www.w3.org/Graphics/SVG/1.1/DTD/svg11.dtd">
<svg version="1.1" id="Capa_1" xmlns="http://www.w3.org/2000/svg" xmlns:xlink="http://www.w3.org/1999/xlink" x="0px" y="0px"
	 width="361.01px" height="71.651px" viewBox="0 0 361.01 71.651" enable-background="new 0 0 361.01 71.651" xml:space="preserve">
<g>
	<g>
		<path fill="#58595B" d="M88.473,16.864h6.18c4.381,0,7.66,1.701,7.66,6.053v0.125c0,3.752-2.459,5.486-5.832,5.959l7.156,10.402
			h-1.955l-7.061-10.277h-4.383v10.277h-1.766V16.864z M94.747,27.708c3.625,0,5.801-1.387,5.801-4.666v-0.125
			c0-3.469-2.301-4.604-5.801-4.604h-4.508v9.395H94.747z"/>
		<path fill="#58595B" d="M105.276,31.333v-0.252c0-4.981,3.152-8.416,7.566-8.416c3.971,0,7.219,2.584,7.219,8.037v0.6H107.01
			c0.062,4.414,2.176,6.936,6.084,6.936c2.742,0,4.602-1.135,5.17-3.436h1.67c-0.693,3.152-3.311,4.854-6.84,4.854
			C108.334,39.655,105.276,36.282,105.276,31.333z M118.327,29.946c-0.158-4.004-2.27-5.863-5.484-5.863
			c-3.184,0-5.453,2.27-5.77,5.863H118.327z"/>
		<path fill="#58595B" d="M122.614,31.397v-0.254c0-5.074,3.311-8.479,7.66-8.479c3.248,0,5.076,1.859,6.021,3.908V15.036h1.672
			v24.367h-1.672v-3.814c-0.883,1.986-3.184,4.066-6.273,4.066C125.831,39.655,122.614,36.63,122.614,31.397z M136.327,31.271
			v-0.252c0-4.539-2.457-6.936-5.895-6.936c-3.531,0-6.084,2.553-6.084,6.998v0.252c0,4.508,2.553,6.904,5.832,6.904
			C133.522,38.237,136.327,35.81,136.327,31.271z"/>
		<path fill="#58595B" d="M149.442,31.397v-0.254c0-5.074,3.311-8.479,7.66-8.479c3.248,0,5.076,1.859,6.021,3.908V15.036h1.672
			v24.367h-1.672v-3.814c-0.883,1.986-3.184,4.066-6.273,4.066C152.659,39.655,149.442,36.63,149.442,31.397z M163.155,31.271
			v-0.252c0-4.539-2.457-6.936-5.895-6.936c-3.531,0-6.084,2.553-6.084,6.998v0.252c0,4.508,2.553,6.904,5.832,6.904
			C160.35,38.237,163.155,35.81,163.155,31.271z"/>
		<path fill="#58595B" d="M168.61,31.333v-0.252c0-4.981,3.152-8.416,7.566-8.416c3.973,0,7.221,2.584,7.221,8.037v0.6h-13.053
			c0.062,4.414,2.176,6.936,6.084,6.936c2.742,0,4.604-1.135,5.17-3.436h1.672c-0.693,3.152-3.311,4.854-6.842,4.854
			C171.668,39.655,168.61,36.282,168.61,31.333z M181.663,29.946c-0.158-4.004-2.271-5.863-5.486-5.863
			c-3.184,0-5.453,2.27-5.77,5.863H181.663z"/>
		<path fill="#58595B" d="M193.579,32.94h1.734c0.379,2.838,1.955,5.266,6.652,5.266c3.529,0,5.832-2.049,5.832-4.824
			c0-3.152-1.514-4.256-6.053-4.949c-4.918-0.725-7.283-2.363-7.283-5.926c0-3.5,2.869-5.895,7.094-5.895
			c4.191,0,6.746,2.08,7.25,5.674h-1.607c-0.535-2.807-2.301-4.225-5.643-4.225c-3.469,0-5.455,1.607-5.455,4.318
			c0,2.459,1.23,3.783,5.928,4.477c5.043,0.758,7.471,2.176,7.471,6.4c0,3.562-2.994,6.398-7.533,6.398
			C196.385,39.655,194.051,36.63,193.579,32.94z"/>
		<path fill="#58595B" d="M212.495,34.958c0-3.814,3.656-4.98,7.723-4.98h3.438v-1.48c0-3.09-1.262-4.414-4.162-4.414
			c-2.49,0-4.256,1.072-4.635,3.5h-1.639c0.379-3.469,3.217-4.918,6.336-4.918c3.438,0,5.77,1.639,5.77,5.832v10.906h-1.67v-2.521
			c-1.041,1.607-2.807,2.773-5.58,2.773C214.827,39.655,212.495,38.079,212.495,34.958z M223.655,34.075v-2.805h-3.373
			c-3.438,0-6.117,0.725-6.117,3.688c0,2.113,1.324,3.342,4.035,3.342C221.227,38.3,223.655,36.534,223.655,34.075z"/>
		<path fill="#58595B" d="M230.274,15.036h1.703v24.367h-1.703V15.036z"/>
		<path fill="#58595B" d="M236.926,33.351V22.917h1.672v10.34c0,3.498,1.639,4.949,4.508,4.949c2.68,0,5.391-1.797,5.391-5.266
			V22.917h1.67v16.486h-1.67v-3.152c-0.758,1.797-2.869,3.404-5.77,3.404C239.323,39.655,236.926,37.89,236.926,33.351z"/>
		<path fill="#58595B" d="M253.981,31.397v-0.254c0-5.074,3.311-8.479,7.66-8.479c3.248,0,5.076,1.859,6.021,3.908V15.036h1.672
			v24.367h-1.672v-3.814c-0.883,1.986-3.184,4.066-6.273,4.066C257.198,39.655,253.981,36.63,253.981,31.397z M267.694,31.271
			v-0.252c0-4.539-2.459-6.936-5.895-6.936c-3.531,0-6.084,2.553-6.084,6.998v0.252c0,4.508,2.553,6.904,5.832,6.904
			C264.889,38.237,267.694,35.81,267.694,31.271z"/>
	</g>
	<g>
		<path fill="#2F7DE1" d="M62.344,62.843V49.854h5.242v12.691c0,3.547,1.127,5.096,4.28,5.096c3.087,0,4.439-1.371,4.439-5.273
			V49.854h5.242v12.811c0,5.811-3.505,8.818-9.715,8.818C65.786,71.483,62.344,68.505,62.344,62.843z"/>
		<path fill="#2F7DE1" d="M83.226,60.64v-0.238c0-6.467,4.89-10.875,11.42-10.875c5.533,0,9.65,2.502,10.198,7.748h-5.339
			c-0.388-2.564-1.933-3.933-4.827-3.933c-3.634,0-5.951,2.621-5.951,7.031v0.236c0,4.412,2.188,6.973,5.984,6.973
			c2.861,0,4.857-1.34,5.275-4.08h5.115c-0.58,5.273-4.664,7.982-10.327,7.982C87.248,71.483,83.226,67.194,83.226,60.64z"/>
	</g>
	<g>
		<path fill="#58595B" d="M121.11,62.313c-0.033-1.783,1.533-3.172,3.424-3.172c1.893,0,3.426,1.389,3.426,3.141
			c0,1.783-1.5,3.174-3.426,3.174C122.643,65.456,121.11,64.097,121.11,62.313z"/>
	</g>
	<path fill="#683282" d="M162.342,56.745h-1.035c-0.721-4.268-4.705-5.838-8.625-5.838c-4.348,0-8.561,3.111-8.561,8.861
		c0,5.572,3.527,10.637,9.18,10.637c2.451,0,6.23-1.303,9.041-5.332v3.498c-3.43,2.25-6.59,3.08-10.088,3.08
		c-11.303,0-12.971-7.941-12.971-11.172c0-4.801,3.76-10.699,13.92-10.699c2.059,0,6.035,0.533,9.139,1.662V56.745z"/>
	<path fill="#683282" d="M164.612,69.69c1.924-0.025,2.455-0.67,2.455-2.172V54.384c0-1.5-0.531-2.145-2.455-2.172v-0.805h8.633
		v0.805c-1.92,0.027-2.451,0.672-2.451,2.172v5.414h11.082v-5.414c0-1.5-0.533-2.145-2.453-2.172v-0.805h8.631v0.805
		c-1.922,0.027-2.453,0.672-2.453,2.172v13.135c0,1.502,0.531,2.146,2.453,2.172v0.803h-8.631V69.69
		c1.92-0.025,2.453-0.67,2.453-2.172v-6.596h-11.082v6.596c0,1.502,0.531,2.146,2.451,2.172v0.803h-8.633V69.69z"/>
	<path fill="#683282" d="M198.415,60.792c-0.592,0-1.389-0.082-1.949-0.189v-8.283c0.414-0.08,0.736-0.108,1.268-0.108
		c3.842,0,4.938,2.922,4.938,4.879C202.67,59.69,201.075,60.792,198.415,60.792 M218.227,52.212v-0.805h-8.629v0.805
		c1.916,0.027,2.449,0.672,2.449,2.172v13.135c-0.096,1.131-0.873,1.836-1.953,1.977c-1.393-0.258-3.07-1.344-4.574-3.566
		l-3.119-4.898c2.869-0.805,4.111-2.842,4.111-4.664c0-2.627-1.625-4.959-6.77-4.959c-1.92,0-8.066,0.029-9.457,0v0.805
		c1.92,0.027,2.453,0.672,2.453,2.172v13.135c0,1.502-0.533,2.146-2.453,2.172v0.803h8.631V69.69
		c-1.922-0.025-2.451-0.67-2.451-2.172v-5.924c1.979,0.027,2.393-0.143,3.633,2.242l1.154,2.225
		c1.654,3.191,3.277,4.426,7.211,4.426h1.125l0,0c3.145,0.004,8.639,0.006,8.639,0.006V69.69c-1.924-0.025-2.455-0.67-2.455-2.172
		V54.384C215.772,52.884,216.303,52.239,218.227,52.212"/>
	<path fill="#683282" d="M266.86,51.407v0.805c2.051,0,2.414,0.697,2.443,2.307l0.084,3.887c0.027,1.178,0.057,2.252,0.057,3.752
		c0,4.666-1.74,7.668-6.627,7.668c-3.145,0-5.812-2.174-5.812-6.193v-9.248c0-1.5,0.506-2.145,2.332-2.172v-0.805l-26.014,0.029
		c-1.471-0.305-3.17-0.377-4.43-0.377c-6.59,0-7.447,4.209-7.447,5.576c0,5.951,10.787,5.736,10.787,10.025
		c0,1.475-1.418,3.164-4.314,3.164c-2.039,0-4.936-1.395-5.646-4.504h-1.031v4.639c2.1,0.533,4.668,0.885,6.559,0.885
		c4.906,0,7.391-2.521,7.391-5.686c0-5.977-10.965-6.324-10.965-10.24c0-1.445,1.42-2.979,3.812-2.842
		c5.67,0.332,5.285,4.531,5.285,4.531h1.127c0,0-0.705-3.851,3.99-3.859h3.35v14.77c0,1.502-0.535,2.146-2.455,2.172v0.803h8.629
		V69.69c-1.922-0.025-2.451-0.67-2.451-2.172v-14.77h3.9c2.205,0,3.719,0.516,4.055,3.33v6.883c0,5.736,3.959,7.883,9.154,7.883
		c6.178,0,7.889-3.941,7.947-7.858l0.109-8.604c0.027-1.5,0.506-2.145,2.332-2.172v-0.805H266.86z"/>
	<path fill="#683282" d="M274.194,65.321h1.035c0.709,3.109,3.604,4.504,5.646,4.504c2.895,0,4.315-1.689,4.315-3.164
		c0-4.289-10.791-4.074-10.791-10.025c0-1.367,0.859-5.576,7.449-5.576c1.596,0,3.9,0.16,5.559,0.695v4.748h-1.006
		c-0.326-2.738-2.275-4.426-5.408-4.426c-2.395,0-3.812,1.396-3.812,2.842c0,3.916,10.965,4.264,10.965,10.24
		c0,3.164-2.483,5.686-7.389,5.686c-1.895,0-4.463-0.352-6.562-0.885V65.321z"/>
	<g>
		<path fill="#2F7DE1" d="M34.666,31.517c0.301,0,0.543-0.24,0.543-0.539c0-0.299-0.242-0.541-0.543-0.541
			c-0.297,0-0.539,0.242-0.539,0.541C34.127,31.276,34.37,31.517,34.666,31.517z"/>
		<path fill="#2F7DE1" d="M17.516,52.567c-0.086,0-0.158,0.068-0.158,0.154c0,0.092,0.072,0.162,0.158,0.162
			c0.088,0,0.158-0.07,0.158-0.162C17.674,52.636,17.604,52.567,17.516,52.567z"/>
		<path fill="#2F7DE1" d="M24.229,52.884c0.088,0,0.16-0.07,0.16-0.162c0-0.086-0.072-0.154-0.16-0.154
			c-0.088,0-0.158,0.068-0.158,0.154C24.071,52.813,24.141,52.884,24.229,52.884z"/>
		<path fill="#2F7DE1" d="M8.071,47.776l1.293,0.75c-0.023,0.168-0.037,0.34-0.037,0.519c0,1.725,0.994,3.051,2.973,3.461
			c0.154,0.031,0.26,0.061,0.33,0.084l-0.324,3.201v0.033c0,0.666,0.607,1.211,1.357,1.211s1.359-0.545,1.359-1.211v-0.033
			l-0.342-3.336h-0.082v-0.229c0-0.299-0.119-0.633-0.41-0.908c0.252,0,0.566-0.041,0.861-0.211c0.576-0.334,0.767-0.994,0.791-1.07
			l0.098-0.365l0.918-0.531v0.229c0,0.506,0.191,1.027,0.561,1.383v0.766v0.139c-0.527,0.111-0.965,0.455-1.146,0.621l-0.254,0.227
			l0.076,0.441c0,0,0.029,0.113,0.035,0.143c0.139,0.412,0.789,0.754,1.438,0.754c0.256,0,0.457-0.045,0.607-0.08h0.01
			c0.096,0.129,0.234,0.328,0.354,0.57c0.131,0.258,0.309,0.457,0.498,0.625c-0.297,0.33-0.453,0.717-0.453,1.15
			c0,0.584,0.316,0.998,0.658,1.287c-0.154,0.225-0.275,0.51-0.275,0.869c0,0.529,0.213,0.959,0.613,1.295
			c-0.055,0.143-0.092,0.287-0.092,0.443c0,0.428,0.223,0.816,0.584,1.059c0.025,0.432,0.377,0.775,0.812,0.775
			c0.438,0,0.789-0.344,0.814-0.775c0.356-0.242,0.584-0.631,0.584-1.059c0-0.156-0.041-0.301-0.096-0.443
			c0.404-0.336,0.611-0.766,0.611-1.295c0-0.359-0.117-0.645-0.271-0.869c0.338-0.289,0.654-0.703,0.654-1.287
			c0-0.434-0.15-0.82-0.449-1.15c0.188-0.168,0.363-0.367,0.494-0.625c0.121-0.242,0.258-0.441,0.359-0.57h0.01
			c0.15,0.035,0.35,0.08,0.603,0.08c0.649,0,1.301-0.342,1.438-0.754c0.008-0.029,0.037-0.143,0.037-0.143l0.076-0.434l-0.254-0.234
			c-0.158-0.143-0.508-0.422-0.949-0.564v-0.828c0.471-0.346,0.719-0.941,0.719-1.516v-0.584h-0.58h-1.391
			c-0.586-0.623-1.404-1.016-2.311-1.016c-0.91,0-1.727,0.393-2.314,1.016h-1.197l1.752-1.01c0.074-0.045,0.1-0.141,0.059-0.215
			c-0.047-0.074-0.143-0.104-0.215-0.059l-3.291,1.9l-0.27-0.074c0.154-0.316,0.188-0.609,0.191-0.658l0.031-0.387l2.393-2.004
			c0.066-0.057,0.074-0.156,0.021-0.225c-0.059-0.062-0.156-0.072-0.223-0.019l-2.406,2.017l-0.107-0.01
			c0.024-0.078,0.041-0.152,0.057-0.225l0.799-0.949l-0.273-0.254c-0.049-0.051-0.105-0.098-0.16-0.145l1.063-1.268
			c0.057-0.066,0.049-0.164-0.018-0.221c-0.066-0.055-0.17-0.049-0.223,0.022l-1.072,1.275c-0.703-0.498-1.57-0.762-2.484-0.762
			c-0.633,0-1.209,0.129-1.713,0.357l-0.736-0.871c-0.057-0.07-0.154-0.076-0.225-0.022c-0.062,0.057-0.07,0.156-0.018,0.221
			l0.688,0.82c-0.34,0.193-0.633,0.432-0.885,0.713l-0.84-0.709c-0.068-0.055-0.166-0.047-0.223,0.02
			c-0.057,0.064-0.049,0.166,0.019,0.221l0.844,0.709c-0.269,0.361-0.465,0.773-0.574,1.221l-1.203-0.695
			c-0.076-0.045-0.172-0.016-0.215,0.059C7.969,47.636,7.995,47.731,8.071,47.776z M19.086,54.058
			c-0.184-0.365-0.418-0.693-0.572-0.846c-0.209-0.209-0.482,0.018-0.949,0.018c-0.492,0-0.836-0.266-0.857-0.334l-0.029-0.16
			c0.129-0.113,0.596-0.5,1.084-0.5c0.539-0.014,1.254,0.271,1.889,1.541c0.115,0.229,0.336,0.391,0.604,0.531
			c-0.221,0.094-0.449,0.199-0.67,0.322C19.381,54.483,19.204,54.298,19.086,54.058z M19.413,52.368h0.355
			c0.004,0.174,0.039,0.647,0.039,0.647S19.538,52.497,19.413,52.368z M21.463,59.31c-0.211,0.1-0.355,0.174-0.508,0.314
			c-0.105,0.094-0.113,0.252-0.023,0.357c0.094,0.1,0.252,0.111,0.357,0.02c0.094-0.086,0.184-0.137,0.338-0.213
			c0.023,0.068,0.031,0.139,0.031,0.215c0,0.318-0.234,0.58-0.557,0.668l-0.008,0.344c0,0.117-0.096,0.211-0.213,0.211
			c-0.115,0-0.209-0.094-0.209-0.211l-0.016-0.344c-0.322-0.088-0.559-0.35-0.559-0.668c0-0.146,0.043-0.275,0.111-0.404
			c0.254-0.396,0.535-0.568,1.098-0.945c0.017-0.014,0.035-0.027,0.055-0.039c0.006-0.004,0.01-0.006,0.016-0.01
			c0.002-0.004,0.004-0.004,0.004-0.004c0.006-0.004,0.012-0.01,0.02-0.014c0.008-0.01,0.02-0.017,0.027-0.023
			c0.078-0.08,0.123-0.17,0.123-0.299c0-0.106-0.064-0.207-0.18-0.303c0.049-0.025,0.098-0.049,0.149-0.072
			c0.15-0.076,0.295-0.149,0.438-0.229c0.135,0.17,0.225,0.361,0.225,0.604C22.182,58.829,21.823,59.118,21.463,59.31z
			 M21.541,57.31h0.004c-0.078,0.043-0.164,0.086-0.25,0.127c-0.301,0.148-0.535,0.254-0.799,0.445
			c-0.018,0.01-0.035,0.023-0.053,0.037c-0.01,0.006-0.018,0.012-0.027,0.018l-0.002,0.002c-0.129,0.107-0.207,0.213-0.207,0.326
			c0,0.185,0.1,0.299,0.26,0.396c-0.178,0.133-0.326,0.266-0.463,0.422c-0.244-0.158-0.426-0.387-0.426-0.818
			c0-0.352,0.189-0.609,0.445-0.815c0.008-0.006,0.016-0.01,0.021-0.014c0.264-0.205,0.611-0.371,0.926-0.541
			c0.106-0.057,0.211-0.113,0.309-0.168c0.367-0.188,0.654-0.363,0.654-0.619c0-0.246-0.172-0.418-0.434-0.564
			c0.221-0.094,0.443-0.193,0.646-0.305c0.246,0.217,0.42,0.494,0.42,0.869C22.567,56.685,22.049,57.04,21.541,57.31z
			 M20.602,56.062c0-0.154,0.125-0.279,0.279-0.279c0.156,0,0.279,0.125,0.279,0.279c0,0.152-0.123,0.279-0.279,0.279
			C20.727,56.341,20.602,56.214,20.602,56.062z M25.079,52.735l-0.023,0.16c-0.023,0.068-0.367,0.334-0.859,0.334
			c-0.469,0-0.74-0.227-0.949-0.018c-0.154,0.152-0.387,0.481-0.572,0.846c-0.149,0.297-0.383,0.508-0.652,0.678
			c-0.277,0.158-0.601,0.295-0.92,0.43c-0.209,0.088-0.42,0.176-0.619,0.271v-0.008c-0.379,0.172-0.656,0.367-0.656,0.68
			c0,0.223,0.217,0.391,0.518,0.557c-0.203,0.113-0.396,0.234-0.576,0.371c-0.32-0.236-0.57-0.527-0.57-0.928
			c0-0.494,0.291-0.818,0.672-1.057c0.316-0.176,0.654-0.314,0.969-0.443c0.34-0.141,0.639-0.26,0.855-0.41
			c0,0,0.008-0.002,0.01-0.004c0.178-0.115,0.32-0.244,0.408-0.418c0.635-1.27,1.355-1.555,1.887-1.541
			C24.487,52.235,24.956,52.622,25.079,52.735z M20.368,52.368h1.031l-0.062,1.461c-0.174,0.104-0.426,0.205-0.69,0.312
			c-0.066,0.027-0.137,0.057-0.205,0.084L20.368,52.368z M21.928,53.034c0,0,0.061-0.492,0.066-0.666h0.354
			C22.225,52.497,21.928,53.034,21.928,53.034z M17.358,49.292h1.891c0.188,0,0.334,0.15,0.334,0.336c0,0,0,0.34,0,0.457
			c0.101-0.002,0.33,0.002,0.428,0c0-0.113,0-0.457,0-0.457c0-0.318-0.203-0.605-0.502-0.713l-0.142-0.051l0.123-0.09
			c0.443-0.307,0.961-0.467,1.492-0.467c0.553,0,1.092,0.178,1.551,0.516l0.101,0.072l-0.109,0.059
			c-0.258,0.135-0.414,0.393-0.414,0.674c0,0,0,0.344,0,0.457c0.1,0.002,0.326-0.002,0.426,0c0-0.117,0-0.457,0-0.457
			c0-0.186,0.152-0.336,0.336-0.336h1.887v0.078c0,0.145-0.019,0.308-0.074,0.469h-1.291v0.213H24.6
			c-0.168,0.34-0.482,0.625-0.994,0.625c0,0-0.377,0-0.488,0c-0.002,0.098-0.008,0.326-0.008,0.426c0.119,0,0.496,0,0.496,0
			l0.207-0.012h0.195v0.74h-6.055v-0.74h0.363l0.197,0.012c0,0,0.377,0,0.494,0c0-0.1,0-0.328-0.004-0.426c-0.115,0-0.49,0-0.49,0
			c-0.514,0-0.828-0.285-0.994-0.625h1.18v-0.213h-1.266c-0.049-0.16-0.076-0.324-0.076-0.469V49.292z M14.422,55.825
			c0,0.338-0.34,0.611-0.76,0.611c-0.42,0-0.762-0.273-0.762-0.611l0.281-2.773h0.963L14.422,55.825z M14.784,50.651
			c-0.457,0.266-1.041,0.107-1.041,0.107s0.156-0.582,0.613-0.848c0.459-0.262,1.043-0.108,1.043-0.108S15.245,50.39,14.784,50.651z
			 M14.213,48.802c0.402-0.336,1.01-0.287,1.01-0.287s-0.057,0.603-0.459,0.941c-0.406,0.34-1.008,0.289-1.008,0.289
			S13.811,49.142,14.213,48.802z M14.092,47.694c0.311-0.369,0.861-0.42,0.861-0.42S15,47.827,14.69,48.198
			c-0.311,0.369-0.861,0.418-0.861,0.418S13.778,48.063,14.092,47.694z M13.092,46.112c0.984,0,1.869,0.365,2.49,0.939l-0.117,0.145
			c-0.465-0.279-1.027-0.439-1.637-0.439c-1.565,0-2.6,1.061-2.6,2.371c0,1.102,0.662,2.006,1.879,2.293
			c0.752,0.176,0.891,0.59,0.891,0.807c0,0.078,0,0.156,0,0.229h-0.678c-0.031-0.25-0.26-0.402-0.9-0.537
			c-1.606-0.33-2.498-1.385-2.498-2.873C9.922,47.425,11.213,46.112,13.092,46.112z M13.077,48.802
			c0.406,0.34,0.459,0.943,0.459,0.943s-0.602,0.051-1.008-0.289c-0.402-0.338-0.461-0.941-0.461-0.941S12.672,48.466,13.077,48.802
			z M12.336,47.274c0,0,0.555,0.051,0.865,0.42c0.311,0.369,0.262,0.922,0.262,0.922s-0.553-0.049-0.865-0.418
			C12.29,47.827,12.336,47.274,12.336,47.274z M12.934,49.911c0.461,0.266,0.615,0.848,0.615,0.848s-0.586,0.158-1.043-0.107
			c-0.455-0.262-0.615-0.848-0.615-0.848S12.477,49.649,12.934,49.911z"/>
		<path fill="#2F7DE1" d="M41.575,51.411l-1.094-2.43c0.576-0.068,1.016-0.551,1.016-1.133c0-0.633-0.514-1.145-1.146-1.145
			c-0.445,0-0.83,0.26-1.02,0.633c-1.443,0.059-2.604-0.141-3.451-0.6c0.031-0.113,0.053-0.227,0.053-0.35
			c0-0.764-0.623-1.389-1.389-1.389c-0.77,0-1.391,0.625-1.391,1.389c0,0.121,0.02,0.236,0.047,0.35
			c-0.844,0.459-1.998,0.658-3.439,0.6c-0.188-0.373-0.574-0.633-1.021-0.633c-0.633,0-1.145,0.512-1.145,1.145
			c0,0.586,0.439,1.068,1.008,1.137l-1.092,2.426h-0.504v0.57c0,1.102,0.893,1.998,1.996,1.998c0.4,0,0.771-0.119,1.088-0.324
			l-1.166,1.762h-0.008l-0.004,0.016l-0.008,0.021l0.006,0.008l-0.143,0.869l3.752,0.75c-0.051,0.195,0.311,0.432,0.553,0.496
			c0.17,0.045,0.434,0.037,0.59-0.039l0.105,1.463l-0.002-0.041c0,0.426,0.348,0.775,0.777,0.775c0.424,0,0.771-0.346,0.773-0.768
			l0.002-0.008l0,0l0.072-1.016l2.135,0.688l1.842-4.527l-0.006-0.264c0.226,0.086,0.467,0.139,0.721,0.139c1.104,0,2-0.896,2-1.998
			v-0.57H41.575z M41.083,51.411h-2.002l1.002-2.225L41.083,51.411z M38.458,53.142c-0.152-0.016-0.328-0.039-0.52-0.086
			c-0.377-0.09-0.625-0.264-0.893-0.445c-0.26-0.184-0.533-0.373-0.922-0.463c-0.102-0.025-0.211-0.035-0.32-0.037l0.223-3.117
			h3.654l-1.09,2.418h-0.508v0.57C38.083,52.415,38.223,52.813,38.458,53.142z M29.002,49.187l1,2.225h-2L29.002,49.187z
			 M30.495,51.411l-1.086-2.418h3.645l0.201,2.834c-0.217,0.01-0.43,0.002-0.646-0.049c-0.477-0.115-0.748-0.305-0.75-0.311
			l-0.223-0.158l-0.15,0.227l-0.518,0.785c0.021-0.111,0.037-0.225,0.037-0.34v-0.57H30.495z M29.002,53.411
			c-0.793,0-1.432-0.643-1.432-1.43h2.865C30.436,52.769,29.791,53.411,29.002,53.411z M33.264,56.737
			c-0.164-0.385-0.373-0.637-0.723-0.76c-0.303-0.105-0.688-0.055-1.09-0.021c-0.451,0.041-0.916,0.08-1.334-0.035
			c-0.283-0.078-0.49-0.184-0.627-0.266c0.234-0.361,2.068-3.275,2.295-3.623c0.16,0.08,0.393,0.182,0.701,0.254
			c0.281,0.07,0.547,0.076,0.807,0.064l0.301,4.203C33.463,56.571,33.264,56.737,33.264,56.737z M34.752,58.96
			c0,0.113-0.096,0.207-0.209,0.207c-0.117,0-0.211-0.094-0.211-0.207l-0.752-10.535h-4.824l-0.018,0.002
			c-0.318,0-0.576-0.26-0.576-0.578c0-0.316,0.258-0.576,0.576-0.576c0.32,0,0.578,0.26,0.578,0.576
			c0,0.014-0.006,0.027-0.006,0.039c1.049,0.074,3.168,0.129,4.625-0.943c-0.133-0.146-0.219-0.34-0.219-0.557
			c0-0.453,0.369-0.82,0.826-0.82c0.455,0,0.82,0.367,0.82,0.82c0,0.217-0.084,0.416-0.217,0.559
			c1.459,1.074,3.588,1.016,4.631,0.941c0-0.012-0.004-0.025-0.004-0.039c0-0.316,0.258-0.576,0.576-0.576
			c0.316,0,0.58,0.26,0.58,0.576c0,0.318-0.264,0.578-0.58,0.578l-0.016-0.002h-4.836L34.752,58.96z M37.034,57.69
			c0,0-0.277,0.02-0.535-0.043c-0.25-0.059-0.619-0.393-1.059-0.604l0.328-4.418c0.074,0.004,0.15,0.01,0.234,0.031
			c0.291,0.066,0.504,0.213,0.748,0.383c0.279,0.193,0.596,0.414,1.068,0.525c0.287,0.07,0.73,0.158,0.935,0.168
			C38.534,54.304,37.034,57.69,37.034,57.69z M40.083,53.411c-0.793,0-1.432-0.643-1.432-1.43h2.861
			C41.512,52.769,40.872,53.411,40.083,53.411z"/>
		<path fill="#2F7DE1" d="M10.538,36.415c0,2.184,1.682,3.178,3.104,3.689c0,0.182,0.189,0.414,0.353,0.518
			c-0.082,0.064-0.156,0.143-0.207,0.24c-0.103,0.182-0.131,0.393-0.074,0.598c0.051,0.176,0.158,0.322,0.305,0.426
			c-0.365,0.246-0.902,0.619-0.902,1.221v0.451h4.508v-0.451c0-0.703-0.74-1.062-1.07-1.344c-0.064-0.053-0.146-0.125-0.197-0.176
			c0-0.01,0-0.027,0-0.047c0,0,0.768-0.188,0.768-0.812c0-0.312-0.201-0.559-0.367-0.664c0.086-0.064,0.154-0.145,0.209-0.24
			c0.104-0.182,0.127-0.393,0.074-0.598c-0.037-0.117-0.098-0.221-0.178-0.311c0.141-0.082,0.285-0.162,0.389-0.238
			c0.635-0.457,1.508-1.08,1.508-2.256v-1.26h-1.416l0.07-0.396c0.152-0.072,0.367-0.16,0.518-0.16c0.195,0,0.396,0.166,0.602,0.166
			c0.186,0,0.262-0.107,0.262-0.164c0-0.076-0.113-0.066-0.236-0.066c-0.174,0-0.367-0.248-0.649-0.248
			c-0.113,0-0.307,0.045-0.457,0.084c-0.102-0.096-0.502-0.473-0.738-0.623h2.713v9.805h2.918c0,0,0-8.838,0-9.805
			c0.799,0,3.029,0,3.029,0v-2.918c0,0-2.231,0-3.029,0c0-0.82,0-3.492,0-3.492h-2.918v3.492h-3.035v2.764
			c-0.256-0.102-0.547-0.178-0.725-0.178c-0.449,0-0.924,0.088-0.924,0.088s-0.74-0.133-1.361-0.133
			C12.014,33.376,10.538,34.526,10.538,36.415z M16.991,31.435h3.033v-3.492h1.725v3.492h3.029v1.723h-3.029v9.943h-1.725v-9.943
			h-3.033V31.435z M16.989,43.019v0.08h-3.242v-0.08c0-0.332,0.793-0.727,1.123-1.066l0.857-0.236
			C15.752,42.087,16.989,42.608,16.989,43.019z M14.329,39.655l1.865-0.521c0.168-0.047,0.344,0.053,0.389,0.223
			c0.043,0.164-0.053,0.338-0.221,0.385l-1.863,0.52c-0.168,0.049-0.342-0.047-0.389-0.217C14.063,39.872,14.159,39.7,14.329,39.655
			z M16.422,41.032l-1.865,0.518c-0.168,0.049-0.342-0.051-0.389-0.219c-0.047-0.166,0.053-0.34,0.219-0.387l1.867-0.521
			c0.166-0.043,0.34,0.053,0.387,0.219C16.69,40.81,16.588,40.985,16.422,41.032z M18.125,35.79v0.631
			c0,0.854-0.658,1.324-1.242,1.744c-0.236,0.17-0.736,0.5-0.736,0.5l-1.226,0.334c-0.203-0.312-0.684-0.559-1.066-0.834
			c-0.582-0.42-1.244-0.891-1.244-1.744V35.79H18.125z M13.381,34.005c0.478,0,0.846,0.031,1.262,0.137
			c0.01,0,0.529-0.092,1.023-0.092c0.561,0,1.133,0.566,1.133,0.566l-0.053,0.299c0,0-0.264,0.334-1.047,0.334
			c-0.465,0-0.851-0.305-1.168-0.406c-0.332-0.105-0.756-0.162-1.152-0.162c-0.668,0-1.553,0.602-1.553,1.734
			c0,0.979,0.568,1.469,1.147,1.902c0.668,0.498,1.125,0.701,1.312,0.859L14.2,39.202c-0.17,0.047-0.311,0.148-0.414,0.285
			c-1.213-0.451-2.619-1.271-2.619-3.072C11.166,34.854,12.37,34.005,13.381,34.005z"/>
		<path fill="#2F7DE1" d="M42.219,36.753c0-1.482-1.045-2.482-2.604-2.482h-1.98l-0.971-2.469c0.105-0.256,0.164-0.533,0.164-0.824
			c0-1.19-0.969-2.16-2.162-2.16c-1.188,0-2.158,0.971-2.158,2.16c0,0.297,0.059,0.576,0.164,0.832l-0.965,2.461h-1.986
			c-1.559,0-2.605,1-2.605,2.482c0,1.176,0.965,2.133,2.15,2.133c0.246,0,0.473-0.045,0.682-0.131l-0.883,2.246l-0.758,1.938
			c-0.191,0.496,0.137,0.633,0.137,0.633l0.438,0.23c0.275,0.145,0.498-0.051,0.637-0.299l0.506-0.879v0.223h0.629h8.031h0.635
			v-0.232l0.506,0.889c0.143,0.248,0.365,0.443,0.637,0.299l0.439-0.23c0,0,0.332-0.137,0.137-0.633l-0.76-1.938l-0.881-2.244
			c0.205,0.084,0.432,0.129,0.674,0.129C41.258,38.886,42.219,37.929,42.219,36.753z M34.666,29.448
			c0.846,0,1.533,0.686,1.533,1.529c0,0.848-0.688,1.531-1.533,1.531c-0.844,0-1.529-0.684-1.529-1.531
			C33.137,30.134,33.823,29.448,34.666,29.448z M29.266,38.255c-0.838,0-1.518-0.674-1.518-1.502c0-1.143,0.758-1.854,1.973-1.854
			h1.74l-0.609,1.551c-0.219-0.541-0.699-0.879-1.332-0.879c-0.66,0-1.158,0.473-1.158,1.094c0,0.582,0.408,0.99,0.99,0.99
			c0.174,0,0.314-0.141,0.314-0.314c0-0.174-0.141-0.317-0.314-0.317c-0.135,0-0.357-0.047-0.357-0.359
			c0-0.316,0.273-0.465,0.525-0.465c0.525,0,0.84,0.361,0.84,0.967C30.36,37.798,29.903,38.255,29.266,38.255z M29.012,43.216
			l-0.154-0.082c0,0,2.912-7.426,4.205-10.723c0.201,0.221,0.443,0.404,0.717,0.531l0.557,0.971L29.012,43.216z M34.444,34.899
			h0.457l1.072,1.875h-2.602L34.444,34.899z M31.719,42.286h-1.066v-0.764l1.066-1.859V42.286z M36.942,42.286h-1.062v-3.943
			c0-0.189-0.152-0.338-0.34-0.338s-0.338,0.148-0.338,0.338v3.943h-1.062v-3.943c0-0.189-0.156-0.338-0.34-0.338
			c-0.188,0-0.34,0.148-0.34,0.338v3.943h-1.066v-3.805l0.617-1.078h3.324l0.607,1.064V42.286z M38.684,42.286H37.62v-2.639
			l1.064,1.865V42.286z M40.473,43.134l-0.156,0.082l-5.773-10.088c0.041,0,0.082,0.012,0.123,0.012
			c0.639,0,1.207-0.285,1.602-0.723C37.565,35.714,40.477,43.134,40.473,43.134z M38.973,37.167c0-0.605,0.316-0.967,0.842-0.967
			c0.256,0,0.527,0.149,0.527,0.465c0,0.312-0.223,0.359-0.357,0.359c-0.174,0-0.314,0.143-0.314,0.317
			c0,0.174,0.141,0.314,0.314,0.314c0.582,0,0.99-0.408,0.99-0.99c0-0.621-0.498-1.094-1.16-1.094c-0.627,0-1.105,0.334-1.326,0.871
			l-0.607-1.543h1.734c1.221,0,1.975,0.711,1.975,1.854c0,0.828-0.682,1.502-1.52,1.502C39.44,38.255,38.973,37.798,38.973,37.167z"
			/>
		<circle fill="#2F7DE1" cx="15.774" cy="34.546" r="0.16"/>
		<path fill="#2F7DE1" d="M34.079,16.103c0,0.215,0.205,0.541,0.307,0.619c0.189,0.15,0.561,0.26,0.629,0.279l0.004,0.004
			c-0.008-0.098-0.025-0.193-0.025-0.297c0-1.141,1.1-1.838,1.1-1.838s0.053-0.123,0.066-0.195l-0.133-0.75
			c-0.016-0.107,0-0.15-0.143-0.121l-0.643,0.129c-0.648,0.756-1.195,1.154-1.277,1.223C34.116,15.53,34.079,15.847,34.079,16.103z
			 M34.463,15.278c0.465-0.361,0.777-0.719,0.982-0.949l0.08-0.029l0.139-0.027l0.01,0.057c0.02,0.094,0.035,0.191,0.049,0.268
			l0.004,0.031l-0.025,0.019c-0.428,0.352-0.9,0.785-1.068,1.547L34.6,16.36l-0.07-0.156l-0.023-0.047
			c-0.004-0.039-0.014-0.27-0.014-0.27c0.002-0.035,0.002-0.064,0.002-0.096c0-0.154-0.016-0.305-0.053-0.455l-0.01-0.037
			L34.463,15.278z"/>
		<path fill="#2F7DE1" d="M36.438,13.375c0.074,0.21,0.07,1.138,0.07,1.138c0.094-0.096,0.383-0.379,0.383-0.674
			c0-0.474-0.145-1.04-0.145-1.04c-0.035-0.053-0.424-0.543-0.621-0.543c-0.084,0-0.201,0.125-0.277,0.34
			c-0.068,0.189-0.316,0.512-0.35,0.584L35.5,13.24C35.786,13.24,36.383,13.227,36.438,13.375z"/>
		<path fill="#2F7DE1" d="M11.84,18.474l0.506,0.621c0.27-0.217,0.559-0.416,0.858-0.592c-0.008-0.039-0.018-0.078-0.018-0.121
			c0-0.104,0.019-0.201,0.053-0.291c0.074-0.215,0.232-0.383,0.438-0.479c0.113-0.055,0.23-0.078,0.352-0.078
			c0.248,0,0.48,0.107,0.641,0.295c0.299-0.101,0.607-0.188,0.916-0.248l-0.154-0.785c-0.619,0.117-1.287,0.324-1.9,0.609
			C12.916,17.688,12.331,18.071,11.84,18.474z"/>
		<path fill="#2F7DE1" d="M10.633,16.925l0.488,0.645c0.387-0.312,0.807-0.6,1.256-0.85c-0.006-0.035-0.012-0.066-0.012-0.104
			c0-0.328,0.189-0.631,0.49-0.769c0.107-0.051,0.225-0.08,0.35-0.08c0.238,0,0.465,0.106,0.625,0.279
			c0.453-0.162,0.916-0.291,1.377-0.381c-0.023-0.098-0.178-0.787-0.178-0.787c-0.768,0.148-1.586,0.4-2.33,0.746
			C11.959,15.972,11.245,16.429,10.633,16.925z"/>
		<path fill="#2F7DE1" d="M11.551,14.929c-0.006-0.025-0.008-0.053-0.008-0.082c0-0.326,0.189-0.625,0.486-0.764
			c0.111-0.053,0.234-0.082,0.354-0.082c0.233,0,0.449,0.094,0.609,0.264c0.58-0.223,1.17-0.396,1.764-0.516
			c-0.084-0.332-0.137-0.519-0.17-0.622c-0.033-0.004-0.082-0.01-0.152-0.01c-0.205,0-0.477,0.039-0.801,0.123l-0.127,0.031
			c-0.188,0.051-0.498,0.138-0.826,0.138c-0.424,0-0.766-0.143-1.008-0.425c-0.123-0.137-0.164-0.148-0.174-0.148
			c-0.016,0-0.049,0.017-0.084,0.031c-0.088,0.041-0.088,0.041-0.088,0.109c0,0.043,0.006,0.096,0.014,0.158
			c0.012,0.066,0.016,0.129,0.016,0.193c0,0.731-0.658,1.181-0.977,1.399L10.276,14.8c-0.477,0.352-0.643,0.57-0.699,0.664
			c0.057,0.092,0.168,0.256,0.369,0.529C10.442,15.597,10.981,15.241,11.551,14.929z"/>
		<path fill="#2F7DE1" d="M29.295,15.419c0.35,0.094,0.986,0.268,0.986,0.268c0.207-0.832,0.768-1.318,1.008-1.494
			c-0.184-0.207-0.627-0.723-0.984-1.272c-0.432,0.184-0.879,0.34-1.07,0.404c0.049,0.204,0.139,0.702,0.139,1.392
			C29.374,15.034,29.329,15.28,29.295,15.419z M30.174,13.359c0.213,0.298,0.424,0.573,0.611,0.794
			c-0.021,0.021-0.424,0.318-0.74,1.092c-0.158-0.041-0.186-0.049-0.342-0.094c0.021-0.144,0.031-0.293,0.031-0.435
			c0-0.391-0.041-0.774-0.102-1.15C29.811,13.503,29.989,13.433,30.174,13.359z"/>
		<path fill="#2F7DE1" d="M20.913,14.192c0.244,0.176,0.805,0.662,1.01,1.494c0.193-0.053,0.637-0.174,0.986-0.268
			c-0.033-0.139-0.078-0.385-0.078-0.703c0-0.69,0.092-1.188,0.139-1.392c-0.191-0.064-0.639-0.221-1.07-0.404
			C21.536,13.47,21.1,13.985,20.913,14.192z M22.571,13.566c-0.06,0.377-0.101,0.76-0.101,1.15c0,0.142,0.01,0.291,0.031,0.435
			c-0.156,0.045-0.184,0.053-0.344,0.094c-0.316-0.774-0.717-1.07-0.736-1.092c0.184-0.221,0.395-0.496,0.607-0.794
			C22.213,13.433,22.393,13.503,22.571,13.566z"/>
		<path fill="#2F7DE1" d="M21.45,18.188c1.356-0.246,2.283-0.658,2.615-0.824c-0.203-0.203-0.639-0.67-0.932-1.293
			c-0.17,0.057-0.496,0.143-1.123,0.307C22.022,17.265,21.682,17.876,21.45,18.188z M22.356,16.661
			c0.18-0.049,0.4-0.109,0.596-0.162c0.139,0.256,0.312,0.506,0.519,0.746c-0.342,0.137-0.738,0.273-1.328,0.418
			C22.266,17.351,22.336,17.015,22.356,16.661z"/>
		<path fill="#2F7DE1" d="M25.25,17.437c0.18,0.119,0.521,0.346,0.852,0.514c0.346-0.168,0.682-0.392,0.853-0.514
			c-0.197-0.158-0.578-0.502-0.855-0.996C25.823,16.942,25.448,17.28,25.25,17.437z M26.1,17.085
			c0.084,0.102,0.174,0.203,0.27,0.299c-0.102,0.062-0.193,0.115-0.27,0.158c-0.076-0.043-0.162-0.096-0.264-0.154
			C25.932,17.29,26.022,17.187,26.1,17.085z"/>
		<path fill="#2F7DE1" d="M21.647,12.014c0.141-0.244,0.516-0.93,0.516-1.475c0-0.248-0.211-0.705-0.557-0.705
			c-0.357,0-0.693,0.504-0.693,1.041C20.913,11.502,21.432,11.883,21.647,12.014z M21.606,10.195c0.109,0,0.197,0.258,0.197,0.344
			c0,0.176-0.055,0.467-0.273,0.92c-0.217-0.221-0.252-0.422-0.252-0.584C21.278,10.525,21.473,10.195,21.606,10.195z"/>
		<path fill="#2F7DE1" d="M30.754,18.188c-0.232-0.312-0.572-0.924-0.559-1.81c-0.629-0.164-0.957-0.254-1.125-0.307
			c-0.295,0.623-0.726,1.09-0.935,1.293C28.471,17.53,29.397,17.942,30.754,18.188z M29.254,16.499
			c0.193,0.053,0.414,0.113,0.592,0.162c0.022,0.354,0.094,0.689,0.215,1.002c-0.588-0.144-0.984-0.281-1.326-0.418
			C28.94,17.005,29.112,16.755,29.254,16.499z"/>
		<path fill="#2F7DE1" d="M24.278,15.03c0.047-0.018,0.084-0.031,0.109-0.041c0-0.014-0.002-0.025-0.002-0.039
			c0-0.156,0.105-0.293,0.258-0.334c0.029-0.01,0.059-0.014,0.09-0.014c0.152,0,0.293,0.105,0.334,0.256
			c0.09,0.332-0.145,0.678-0.561,0.828l-0.688,0.197c0.195,0.385,0.488,0.754,0.869,1.104c0.678-0.492,1.02-1.068,1.02-1.719
			c0-0.916-0.98-1.336-2.076-1.721c-0.07,0.377-0.107,0.766-0.107,1.168c0,0.17,0.019,0.342,0.059,0.514L24.278,15.03z
			 M25.395,15.237c0,0,0.064,0.6-0.678,1.25c-0.123-0.127-0.234-0.254-0.33-0.391C25.295,15.858,25.395,15.237,25.395,15.237z
			 M23.926,14.042c0.41,0.135,0.828,0.305,0.828,0.305s-0.432-0.051-0.689,0.371c-0.045,0.012-0.102,0.029-0.17,0.047
			c-0.004-0.018-0.008-0.035-0.008-0.049C23.887,14.483,23.903,14.261,23.926,14.042z"/>
		<path fill="#2F7DE1" d="M31.295,10.875c0-0.537-0.34-1.041-0.697-1.041c-0.346,0-0.557,0.457-0.557,0.705
			c0,0.543,0.375,1.231,0.516,1.475C30.77,11.883,31.295,11.502,31.295,10.875z M30.598,10.195c0.135,0,0.33,0.33,0.33,0.68
			c0,0.162-0.037,0.363-0.252,0.584c-0.219-0.453-0.275-0.744-0.275-0.92C30.401,10.453,30.491,10.195,30.598,10.195z"/>
		<path fill="#2F7DE1" d="M27.512,16.987c0.385-0.35,0.678-0.719,0.871-1.104l-0.691-0.199c-0.412-0.148-0.645-0.494-0.559-0.826
			c0.045-0.15,0.184-0.256,0.338-0.256c0.029,0,0.057,0.004,0.09,0.014c0.15,0.041,0.258,0.178,0.258,0.334
			c0,0.014-0.002,0.025-0.004,0.039c0.023,0.01,0.059,0.023,0.105,0.041l0.699,0.199c0.043-0.168,0.059-0.344,0.059-0.514
			c0-0.399-0.037-0.789-0.105-1.168c-1.1,0.385-2.078,0.805-2.078,1.721C26.495,15.919,26.84,16.495,27.512,16.987z M28.272,14.042
			c0.024,0.219,0.039,0.441,0.039,0.674c0,0.014-0.004,0.031-0.004,0.049c-0.07-0.018-0.127-0.035-0.174-0.047
			c-0.256-0.422-0.689-0.371-0.689-0.371S27.86,14.177,28.272,14.042z M26.803,15.237c0,0,0.1,0.621,1.008,0.859
			c-0.094,0.137-0.205,0.264-0.328,0.391C26.739,15.837,26.803,15.237,26.803,15.237z"/>
		<polygon fill="#2F7DE1" points="39.5,17.849 39.639,16.745 40.741,16.556 39.725,16.071 39.87,14.968 39.094,15.778 
			38.088,15.312 38.092,15.321 38.62,16.276 37.838,17.087 38.954,16.872 		"/>
		<path fill="#2F7DE1" d="M36.008,16.116c-0.078,0.164-0.117,0.346-0.123,0.592c0,0.453,0.209,0.861,0.584,1.156
			c0,0,0.498,0.361,0.506,0.363c0.35,0.242,0.656,0.459,0.842,0.715l0.076,0.105l0.223-0.012c0.314,0,0.693,0.109,1.004,0.199
			l0.582,0.152c0.123,0.025,0.246,0.037,0.361,0.037c0.361,0,0.682-0.119,0.943-0.35c0.164-0.141,0.277-0.287,0.352-0.453
			c0.109-0.232,0.133-0.469,0.133-0.754l-0.006-0.414c0-0.195,0.008-0.424,0.068-0.699c0.01-0.051,0.021-0.1,0.033-0.152
			l0.006,0.002l0.055-0.141c0.162-0.352,0.5-0.553,0.801-0.717l0.143-0.119l-0.086-0.582l-0.174-0.029
			c-0.277-0.047-0.533-0.16-0.604-0.195c-0.174-0.08-0.826-0.49-0.826-1.025c0-0.033,0.004-0.066,0.012-0.111
			c0.01-0.076,0.018-0.133,0.018-0.18c0-0.265-0.17-0.341-0.264-0.386c-0.055-0.025-0.123-0.061-0.209-0.061
			c-0.166,0-0.285,0.121-0.387,0.238c-0.148,0.173-0.354,0.255-0.619,0.255c-0.236,0-0.467-0.066-0.672-0.121
			c-0.082-0.027-0.371-0.14-0.621-0.364l-0.135-0.115l-0.152,0.096c-0.018,0.012-0.146,0.088-0.23,0.139l-0.145,0.084l0.029,0.163
			c0.035,0.172,0.068,0.359,0.068,0.551c0,0.201-0.035,0.369-0.098,0.51l-0.078,0.137c-0.023,0.043-0.051,0.078-0.076,0.117
			c-0.207,0.279-0.455,0.479-0.68,0.654C36.385,15.626,36.147,15.817,36.008,16.116z M37.772,14.858
			c0.369-0.533,0.191-1.379,0.191-1.379l0.02-0.012c0.268,0.211,0.545,0.318,0.66,0.359c0.248,0.07,0.518,0.144,0.809,0.144
			c0.389,0,0.705-0.133,0.938-0.398c0.055-0.07,0.084-0.092,0.098-0.1c0.023,0.062,0.02,0.102,0.01,0.15
			c-0.008,0.061-0.012,0.117-0.012,0.172c0,0.75,0.766,1.27,1.064,1.408c0.09,0.041,0.316,0.139,0.584,0.199l0.002,0.033
			c0,0-0.531,0.201-0.873,0.898c-0.398,0.807-0.082,1.74-0.283,2.109c-0.254,0.467-0.658,0.56-0.916,0.56
			c-0.09,0-0.182-0.01-0.277-0.029l-0.557-0.144c-0.326-0.096-0.74-0.217-1.113-0.217l-0.021,0.004
			c-0.219-0.271-0.529-0.494-0.881-0.736c-0.033-0.022-0.473-0.34-0.496-0.358c-0.266-0.211-0.629-0.713-0.33-1.23
			C36.688,15.776,37.268,15.593,37.772,14.858z"/>
		<path fill="#2F7DE1" d="M19.221,17.294c0.309,0,0.27-0.34,0.391-0.461c0.117-0.117,0.453-0.072,0.453-0.392
			c0-0.316-0.346-0.277-0.453-0.393c-0.115-0.113-0.062-0.459-0.391-0.459c-0.201,0-0.307,0.156-0.307,0.387v0.932
			C18.915,17.132,19.018,17.294,19.221,17.294z"/>
		<path fill="#2F7DE1" d="M8.979,20.593c-0.174-0.145-0.365-0.168-0.496-0.01c-0.195,0.238,0.092,0.426,0.109,0.596
			c0.016,0.164-0.236,0.395,0.01,0.598c0.244,0.199,0.436-0.084,0.594-0.1c0.162-0.016,0.393,0.246,0.608-0.008
			c0.123-0.154,0.07-0.332-0.108-0.484L8.979,20.593z"/>
		<path fill="#2F7DE1" d="M47.553,29.575c0.727-0.144,1.369-0.865,1.369-1.728c0-0.533-0.215-1.299-1.236-1.934
			c-0.152-0.094-0.277-0.16-0.408-0.219c0.748-0.272,1.139-0.795,1.139-1.522c0-0.478-0.385-0.865-0.865-0.869
			c-0.23,0-0.449,0.092-0.615,0.254c-0.139,0.142-0.225,0.324-0.248,0.521c-0.1,0.037-0.375,0.108-1.076,0.108
			c-0.26,0-0.537-0.039-0.828-0.125c0.137-0.059,0.658-0.49,0.842-0.668s0.684-0.315,0.906-0.69c0.578-0.99,0.795-1.51,1.008-2.414
			c0.107-0.451,0.162-0.861,0.162-1.244c0-0.342-0.045-0.617-0.082-0.854l-0.049-0.389c-0.029-0.31-0.104-1.123-0.811-1.361
			c0,0-1.236-1.851-1.273-1.912c-0.037-0.059-0.102-0.076-0.146-0.025c-0.045,0.053-0.531,0.617-0.531,0.617
			c-0.113,0.006-0.33,0.027-0.518,0.113c-0.039-0.047-0.076-0.088-0.121-0.125c-0.035-0.035-0.076-0.064-0.125-0.09l-0.221-1.414
			l-0.154,0.027c0,0-0.748,0.123-0.756,0.127c-0.035,0-0.207-0.035-0.428-0.141c-0.057-0.024-0.176-0.121-0.234-0.186
			c0.008-0.069,0.014-0.14,0.014-0.206c0-0.678-0.336-1.207-0.951-1.496c-0.396-0.186-1.162-0.379-1.906,0.369
			c-0.055-0.008-0.148-0.027-0.307-0.068c-0.217-0.08-0.318-0.18-0.328-0.199l-0.482-0.826l-1.139,0.684
			c-0.684-0.557-0.988-0.746-1.418-0.582c-0.166,0.064-0.289,0.18-0.447,0.357c0.041-0.09,0.076-0.193,0.076-0.289
			c0-0.443-0.342-0.832-0.812-0.832c-0.057-0.033-0.113-0.064-0.172-0.094c-0.096-0.238-0.369-0.891-0.396-0.953
			c-0.023-0.061-0.123-0.076-0.18-0.033c-0.057,0.045-1.354,1.088-1.354,1.088c-0.176-0.822-0.758-1.422-1.476-1.588V7.471h-0.656
			V7.438c0-1.772-1.199-3.055-2.854-3.055c-0.07,0-0.164,0.012-0.268,0.027V3.248h1.26V1.275h-1.26V0h-2.039v1.275h-1.26v1.973h1.26
			v1.18C25.01,4.4,24.874,4.383,24.762,4.383c-1.68,0-2.854,1.254-2.851,3.088h-0.774v1.307c-0.752,0.219-1.332,0.941-1.426,1.844
			l-0.598-0.502c-0.029-0.023-1.141-0.957-1.141-0.957L17.85,9.059l-2.351,2.805c-0.272-0.186-0.633-0.279-1.076-0.279
			c-0.752,0-1.529,0.287-1.699,0.287c-0.764-0.785-1.555-0.59-1.963-0.398c-0.447,0.209-0.981,0.643-0.981,1.521
			c0,0.074,0.006,0.158,0.02,0.238c-0.043,0.039-0.123,0.109-0.295,0.224c-0.002,0.004-0.135,0.096-0.135,0.1
			c-0.838,0.609-1.295,1.207-1.363,1.801h-3.66v3.379h2.533c-0.156,0.137-1.135,0.906-1.135,2.467c0,1.851,1.529,2.75,1.703,2.851
			c-0.301,0.094-0.58,0.133-0.853,0.133c-0.684,0-0.967-0.066-1.074-0.108c-0.047-0.434-0.416-0.775-0.858-0.775
			c-0.504,0-0.867,0.422-0.867,0.869c0,1.043,0.848,1.424,1.121,1.525c-0.121,0.057-1.631,0.715-1.631,2.137
			c0,0.916,0.639,1.598,1.373,1.74C1.698,33.837-0.033,39.013,0,44.587c0.084,14.393,11.865,26.035,26.258,25.949
			c14.397-0.084,26.039-11.863,25.951-26.258C52.176,38.815,50.459,33.753,47.553,29.575z M45.936,21.438
			c-0.066,0.731-0.42,1.377-1.016,1.879c-0.465,0.387-1.016,0.623-1.562,0.672c0.559,0.338,1.381,0.719,2.254,0.719
			c1.41,0,1.592-0.287,1.592-0.535c0-0.094,0.035-0.182,0.1-0.246c0.07-0.068,0.156-0.104,0.248-0.104
			c0.191,0,0.346,0.156,0.346,0.35c0,1.229-1.6,1.229-2.281,1.229l-0.262-0.016c0.156,0.082,0.4,0.205,0.416,0.213
			c1,0.441,1.002,0.441,1.006,0.443c0.236,0.1,0.397,0.166,0.635,0.312c0.656,0.408,0.988,0.902,0.988,1.477
			c0,0.607-0.451,1.258-1.121,1.258c-0.619,0-1.053-0.473-1.053-1.146c0-0.193,0.154-0.348,0.346-0.348
			c0.193,0,0.35,0.158,0.35,0.348c0,0.361,0.209,0.455,0.334,0.455c0.188,0,0.451-0.213,0.451-0.566
			c0-0.326-0.209-0.607-0.664-0.887c-0.189-0.119-0.299-0.164-0.539-0.264l-1.033-0.455c-0.006-0.002-1.043-0.537-1.213-0.627
			h-0.002l-0.025-0.012c-0.682-0.422-1.326-0.914-1.986-1.508l-0.264-0.203l0.064-0.055c0,0,0.461,0.16,0.592-0.01
			c0.135-0.172,0.041-0.576,0.041-0.576l0.164,0.029c0.014,0.006,0.09,0.012,0.09,0.012c0.045,0.002,0.098,0.004,0.145,0.004
			c0.658,0,1.246-0.369,1.4-0.498c0.455-0.379,0.721-0.863,0.77-1.406c0.008-0.062,0.008-0.125,0.008-0.185
			c0-0.572-0.221-1.018-0.41-1.223c-0.088-0.102-0.141-0.221-0.141-0.336c0-0.088,0.029-0.164,0.076-0.215
			c0.07-0.07,0.146-0.105,0.23-0.105c0.121,0.002,0.244,0.07,0.367,0.205c0.357,0.4,0.57,1.021,0.57,1.666
			C45.946,21.267,45.946,21.353,45.936,21.438z M45.959,27.499c-0.355-0.414-0.49-0.564-0.875-0.959l1.113,0.48
			c0.209,0.078,0.285,0.166,0.26,0.168C46.11,27.22,45.983,27.466,45.959,27.499z M32.795,10.76l0.363,0.066l-0.098-0.281
			l0.289,0.142l0.033-0.357l0.223,0.225l0.086-0.328l0.217,0.523c0.149,0.029,0.264,0.096,0.399,0.189
			c0.078,0,0.377,0.018,0.422,0.18c0.078,0.269-0.502,0.375-0.5,0.439c0.002,0.053,0.156,0.15,0.285,0.248
			c0.238,0.176,0.645,0.584,0.695,0.697c0.064-0.078,0.25-0.301,0.309-0.351c0.104-0.09,0.355-0.416,0.449-0.453
			c0.203-0.074,0.438,0.229,0.592,0.328c0.26,0.16,0.445,0.424,0.49,0.471l1.025-0.617c0,0,0.389,0.857,1.35,0.857
			c0.15,0,0.291-0.031,0.35-0.102c0.383-0.441,0.801-0.551,1.283-0.33c0.473,0.221,0.656,0.613,0.562,1.192
			c-0.041,0.25,0.414,0.607,0.605,0.699c0.254,0.115,0.59,0.223,0.768,0.193l0.315-0.055l0.248,1.557
			c-1.229,0.662-1.289,0.656-1.289,1.932c0,0.41,0.012,0.854-0.192,1.293c-0.105,0.229-0.271,0.455-0.52,0.676
			c-0.023,0.019-0.051,0.031-0.074,0.051c-0.006,0.051-0.018,0.1-0.025,0.141l0.322,0.58c0.08-0.072,0.652-0.494,0.723-0.645
			c0.039-0.078-0.014-0.816-0.014-0.816s0.154-0.283,0.154-1.256c0-0.885,0.057-1.053,0.369-1.268
			c0.164-0.109,0.488-0.348,0.738-0.459c-0.066,0.342-0.555,0.51-0.555,0.678c0,0.166,0.092,0.256,0.146,0.314l0.092-0.082
			c0.111-0.096,0.256-0.09,0.31-0.082c0.154-0.113,0.326-0.279,0.531-0.289c0.195-0.008,0.436,0.09,0.523,0.129l0.088-0.119
			c-0.049-0.066-0.158-0.242-0.164-0.367c-0.008-0.144-0.127-0.279-0.385-0.188l0.076-0.174c0.084-0.178,0.309-0.164,0.359-0.158
			c0.119-0.029,0.201-0.061,0.324-0.018l0.299-0.355l0.051,0.303l0.205-0.012l-0.035,0.248l0.225,0.035l-0.049,0.191l0.219,0.125
			l-0.418,0.139c0.006,0.234-0.039,0.488-0.357,0.746c0.018,0.033,0.031,0.088,0.037,0.156c0.018,0.371-0.328,0.502-0.438,0.533
			l-0.047,0.381c0.059,0.039,0.213,0.123,0.297,0.117c0.826-0.033,0.75-1.373,1.281-1.361c0.51,0.008,0.547,0.486,0.582,0.852
			c0.057,0.645,0.27,1.096-0.016,2.285c-0.172,0.738-0.367,1.211-0.736,1.873c0.049-0.176,0.09-0.359,0.105-0.545l0.012-0.293
			c0-0.738-0.24-1.434-0.666-1.904c-0.236-0.266-0.475-0.322-0.629-0.326c-0.188,0-0.369,0.082-0.498,0.225
			c-0.111,0.119-0.176,0.283-0.176,0.455c0,0.205,0.084,0.41,0.236,0.574c0.152,0.174,0.314,0.553,0.314,0.988l-0.004,0.154
			c-0.041,0.416-0.24,0.795-0.58,1.098c0-0.033,0.004-0.064,0.01-0.086c0.045-0.203,0.137-0.443,0.209-0.639
			c0.008-0.031,0.053-0.268,0.053-0.41c0.002-0.111,0.107-0.42,0.168-0.59c-0.166,0.092-0.516,0.506-0.756,0.517
			c-0.076,0.002-0.137,0.002-0.176,0.002c-0.004,0.125-0.016,0.461-0.01,0.543c0.006,0.104-0.201,1.061-0.201,1.074
			c-0.008,0.002-0.016,0.002-0.023,0.004l-0.326,0.064h-0.004c0,0-0.238-0.195-0.269-0.215l0.176-0.92l-0.279,0.615
			c0,0-0.082-0.147-0.17-0.272c-0.053-0.074-0.127-0.074-0.16-0.072l-0.49,0.865c0.064,0.078,0.25,0.318,0.303,0.551l-0.105,0.041
			c-0.023-0.041-0.188-0.305-0.375-0.297c-0.115,0.006-0.326,0.231-0.352,0.275l-0.1-0.053c0.008-0.031,0.051-0.17,0.141-0.307
			c-0.047-0.012-0.123-0.031-0.213-0.027c-0.127,0.008-0.354,0.121-0.402,0.148l-0.037-0.101c0,0,0.213-0.201,0.43-0.234
			c-0.027-0.035-0.07-0.08-0.113-0.076c-0.08,0.002-0.242,0.012-0.242,0.012v-0.09c0,0,0.141-0.082,0.232-0.084
			c0.23-0.012,0.34,0.137,0.574,0.135l0.477-0.92c-0.018-0.373,0.168-0.402,0.152-0.678c-0.006-0.103,0.024-0.191-0.014-0.191
			c-0.059,0-0.549,0.182-0.674,0.188c-0.127,0.004-0.086-0.318-0.098-0.412l-0.312-0.531c-0.24,0.084-0.396,0.105-0.607,0.057
			l-0.047-0.074c0,0,0.008-0.01,0.01-0.014c-0.326,0.082-0.68,0.088-1.045,0.008h-0.01l-0.809-0.213
			c-0.201-0.057-0.404-0.109-0.588-0.141c-0.189,0.043-0.572,0.34-0.649,0.396c-0.074,0.055-0.182,0.102-0.275,0.057
			c-0.096-0.043-0.143-0.146-0.133-0.248c0.006-0.106,0.047-0.408-0.098-0.725c-0.141-0.127-0.316-0.258-0.502-0.387l-0.674-0.48
			l-0.045-0.033c-0.354-0.283-0.594-0.635-0.73-1.022l-0.049-0.002l-0.135-0.141l-0.438-0.064c0,0-0.416-0.469-0.742-0.555
			l-0.111-0.133c0.002-0.021,0.031-0.225-0.025-0.383c-0.049-0.129-0.145-0.193-0.193-0.223c-0.068,0.088-0.26,0.35-0.414,0.578
			c-0.158,0.246-0.441,0.488-0.521,0.557c0.072,0.328,0.113,0.662,0.139,0.996c0.027,0.029,0.096,0.104,0.168,0.211
			c0.064,0.098,0.307,0.352,0.334,0.43c0.02,0.045,0.023,0.129-0.064,0.156c-0.121,0.035-0.266-0.039-0.363-0.103l-0.1-0.064
			l-0.061-0.19l-0.221-0.215c-0.047-0.289-0.066-0.588-0.17-0.867c-0.068-0.188-0.172-0.367-0.172-0.367l0.027-0.115
			c0.143-0.188,0.461-0.645,0.379-0.865c-0.029-0.086-0.137-0.178-0.201-0.236c-0.086-0.078-0.178-0.168-0.24-0.281
			c-0.174,0.051-0.379,0.043-0.48-0.182c-0.029-0.068-0.02-0.15-0.004-0.207c0.041-0.127,0.182-0.16,0.162,0.014
			c-0.006,0.025-0.01,0.061,0,0.088c0.031,0.082,0.166,0.047,0.252,0.018c-0.019-0.203,0.041-0.42,0.137-0.596
			c0.15-0.273,0.479-0.494,0.531-0.529c0.027-0.031,0.172-0.199,0.387-0.402c0.111-0.098,0.233-0.203,0.381-0.311
			c0.445-0.321,0.674-0.71,0.715-0.782l-0.074-0.363c-0.226-0.191-0.473-0.455-0.551-0.725c-0.016-0.059-0.027-0.104-0.035-0.133
			c-0.178-0.022-0.686-0.137-0.752-0.369l0.479-0.064L32.795,10.76z M39.459,20.979c-0.307-0.4,0.43-0.578,0.551-0.424
			c0.371,0.479,0.812,1.039,1.293,1.59l0.16,0.182h-0.242c-0.176,0.01-0.355,0.101-0.404,0.131l-0.08,0.045l-0.088-0.053
			C40.192,21.923,39.78,21.392,39.459,20.979z M40.192,22.474c-0.963-0.623-1.971-1.188-3.016-1.678
			c0.268,0.094,0.598-0.057,0.762-0.189c0.16-0.133,0.234-0.195,0.311-0.229c0.104,0.021,0.211,0.047,0.32,0.08
			c0.166,0.178,0.439,0.525,0.637,0.785C39.475,21.593,39.809,22.017,40.192,22.474z M40.655,20.794
			c0.16,0.033,0.303,0.033,0.439,0.018c0.037,0.064,0.053,0.088,0.078,0.131c0,0.174,0.01,0.422,0.195,0.6l0.393,0.146
			c0,0-0.084,0.117-0.17,0.234C41.239,21.524,40.922,21.142,40.655,20.794z M33.467,18.991c0.031-0.07,0.045-0.139,0.045-0.207
			c0-0.061-0.01-0.123-0.031-0.178l-0.006-0.022l-0.002-0.023V18.45c0,0,1.449-0.019,1.844-0.017c0.393,0.006,0.518,0.66,0.143,0.67
			l-2.059,0.043L33.467,18.991z M33.231,18.075c0,0-0.088-0.107-0.141-0.176c-0.02-0.227-0.049-0.436-0.082-0.637
			c0.012-0.014,0.016-0.094,0.016-0.207c0.133-0.164,0.287-0.354,0.287-0.354l0.016,0.207c0.033,0.041,0.18,0.215,0.18,0.215
			s0.074,0.016,0.135,0.025c0.017,0.006,0.088,0.037,0.137,0.076l0.51,0.459c0,0,0.297,0.051,0.424,0.068
			c0.002,0.004,0.008,0.012,0.02,0.021c0.047,0.104,0.115,0.197,0.174,0.297C34.42,18.089,33.844,18.097,33.231,18.075z
			 M35.399,19.47c0.328-0.012,0.773-0.031,1.014-0.018c0.096,0.068,0.184,0.135,0.264,0.199c0.027,0.088,0.023,0.268,0.023,0.486
			c0.002,0.215,0.135,0.475,0.352,0.602c-1.033-0.479-2.1-0.893-3.199-1.234C34.438,19.505,34.971,19.485,35.399,19.47z
			 M31.729,17.651c-0.42-0.402-0.475-0.979-0.475-1.205c0-0.004,0-0.006,0-0.008c0-0.18,0.029-0.344,0.066-0.504
			c0.123,0.08,0.264,0.129,0.414,0.137c0.049,0.045,0.172,0.17,0.178,0.17c-0.107,0.229-0.336,0.516-0.336,0.516l-0.088,0.396
			C31.489,17.153,31.666,17.441,31.729,17.651z M33.014,11.875c0.115,0.274,0.32,0.516,0.514,0.695
			c0.002,0.01,0.002,0.01,0.004,0.021c-0.074,0.108-0.492,0.49-0.766,0.713c-0.285,0.008-0.561,0.078-0.733,0.134
			c-0.154-0.181-0.373-0.45-0.601-0.765c0.756-0.6,0.9-1.172,0.9-1.172S32.608,11.801,33.014,11.875z M24.762,5.023
			c0.395,0,0.717,0.084,0.984,0.209V2.66h-1.264V1.865h1.264V0.59h0.863v1.275h1.258V2.66H26.61v2.525
			c0.24-0.098,0.521-0.162,0.854-0.162c1.305,0,2.215,0.992,2.215,2.414c0,0.008-0.004,0.02-0.004,0.033H28.85
			c-0.033-0.797-0.508-1.617-1.52-1.617c-0.596,0-0.992,0.391-1.221,0.715c-0.205-0.324-0.586-0.715-1.213-0.715
			c-1.088,0-1.496,0.817-1.521,1.617h-0.824c0-0.014-0.004-0.025-0.004-0.033C22.547,5.992,23.438,5.023,24.762,5.023z M21.61,7.941
			h8.889v0.687H21.61V7.941z M26.112,11.981c-1.022,0-2.381-1.354-3.096-2.881h0.904c0.574,1.098,1.49,2.051,2.191,2.051
			c0.703,0,1.617-0.953,2.195-2.051h0.9C28.495,10.627,27.137,11.981,26.112,11.981z M29.432,12.133
			c-0.057,0.02-0.111,0.041-0.168,0.062c-0.146-0.379-0.34-0.74-0.561-1.088c0.102-0.121,0.201-0.244,0.297-0.373
			C29.036,11.15,29.178,11.617,29.432,12.133z M27.641,12.086c0.111,0.185,0.211,0.377,0.291,0.572
			c-0.672,0.25-1.348,0.564-1.832,1.044c-0.48-0.479-1.16-0.796-1.83-1.044c0.082-0.201,0.184-0.396,0.295-0.584
			c0.502,0.352,1.031,0.57,1.547,0.57C26.622,12.645,27.145,12.43,27.641,12.086z M23.51,11.088
			c-0.225,0.353-0.424,0.723-0.574,1.107c-0.055-0.021-0.106-0.043-0.162-0.062c0.256-0.527,0.402-1,0.434-1.422
			C23.303,10.842,23.407,10.969,23.51,11.088z M21.606,9.139c0.715,0,1.252,0.742,1.252,1.4c0,0.703-0.418,1.494-0.586,1.781
			c0.283,0.119,0.578,0.231,0.881,0.334c0.104-0.303,0.326-0.877,0.721-1.463l0.08-0.113l0.096,0.1
			c0.107,0.113,0.221,0.225,0.338,0.324l0.07,0.062l-0.049,0.08c-0.371,0.586-0.543,1.039-0.605,1.23
			c0.885,0.305,1.83,0.691,2.297,1.376c0.49-0.723,1.406-1.052,2.297-1.372c-0.117-0.351-0.348-0.826-0.598-1.219l-0.047-0.082
			l0.07-0.062c0.115-0.102,0.229-0.209,0.34-0.324l0.094-0.098l0.078,0.113c0.414,0.611,0.637,1.207,0.717,1.449
			c0.326-0.107,0.697-0.26,0.881-0.336c-0.166-0.291-0.586-1.09-0.586-1.781c0-0.658,0.533-1.4,1.252-1.4
			c0.752,0,1.385,0.795,1.385,1.736c0,0.719-0.332,1.264-1.061,1.717c0.428,0.619,0.85,1.099,0.994,1.255
			c0.041-0.016,0.691-0.197,0.691-0.197l-0.393,0.334c-0.514,0.381-0.59,0.742-0.59,0.742h-0.07c-0.254,0-0.465,0.264-0.465,0.57
			c0,0.018,0.012,0.07,0.023,0.105l0.018,0.043l-0.021,0.041c-0.146,0.301-0.219,0.627-0.219,0.961c0,0.127,0.029,1.262,1.006,1.748
			l0.055,0.025l0.037,0.269c0.057,0.051,0.232,0.201,0.232,0.201l0.131,0.264l0.141,0.135l-0.31-0.025
			c-2.887-0.242-4.301-1.019-4.617-1.213c-0.295,0.207-1.176,0.811-1.467,0.811c-0.309,0-1.182-0.608-1.465-0.812
			c-0.394,0.213-2.555,1.293-5.892,1.293c-0.547,0-1.199-0.01-1.684-0.025c-0.174-0.006-0.215-0.674,0.016-0.668
			c0.23,0.006,1.352,0,1.92,0h0.164c1.594,0,2.164-1.035,2.164-2.002c0-0.594-0.203-1.109-0.582-1.492
			c-0.447-0.441-1-0.601-1.342-0.601c-1.338,0-2.06,0.857-2.07,0.867c-0.066,0.08-0.162,0.123-0.264,0.123
			c-0.084,0-0.162-0.027-0.226-0.08c-0.066-0.059-0.111-0.141-0.121-0.232c-0.008-0.094,0.022-0.184,0.08-0.254
			c0.035-0.045,0.934-1.117,2.601-1.117c0.396,0,0.748,0.125,0.895,0.186c0.434-0.472,0.828-1.024,0.986-1.249
			c-0.297-0.174-1.057-0.725-1.057-1.721C20.221,9.934,20.854,9.139,21.606,9.139z M15.03,20.103
			c0.014,0.101-0.039,0.205-0.131,0.246c-0.096,0.047-0.209,0.021-0.279-0.055c-0.018-0.022-0.32-0.356-0.701-0.416
			c0.314-0.234,0.871-0.502,1.256-0.592C14.963,19.622,15.03,20.095,15.03,20.103z M15.055,20.788
			c-1.055,0.496-2.072,1.062-3.045,1.688c0.394-0.465,0.723-0.893,0.986-1.232c0.246-0.315,0.609-0.785,0.738-0.887
			c0.186-0.072,0.473,0.182,0.531,0.25C14.463,20.827,14.784,20.894,15.055,20.788z M15.506,20.136c0-0.035-0.014-0.166-0.014-0.217
			c0-0.15,0.027-0.383,0.158-0.455c0.158-0.031,0.752-0.012,1.154,0.006c0.428,0.016,0.961,0.035,1.555,0.035
			c-1.111,0.346-2.188,0.766-3.227,1.25C15.362,20.63,15.506,20.394,15.506,20.136z M16.473,15.966l0.016-0.037h1.668
			c-0.006-0.035-0.008-0.07-0.008-0.1c0-0.578,0.465-1.047,1.041-1.047c0.67,0,0.92,0.559,0.969,0.693
			c0.131,0.049,0.68,0.289,0.68,0.965c0,0.678-0.549,0.916-0.68,0.967c-0.049,0.133-0.293,0.689-0.969,0.689
			c-0.645,0-1.041-0.541-1.041-1.041c0-0.035,0.002-0.07,0.008-0.102h-1.373l-0.019-0.029c-0.01-0.021-0.023-0.041-0.051-0.064
			C16.422,16.585,16.35,16.31,16.473,15.966z M16.407,14.751l-0.152-0.656c0.416-0.498,0.734-0.878,0.893-1.064
			c0.02,0.016,0.43,0.359,0.697,0.585C17.04,13.956,16.481,14.501,16.407,14.751z M18.161,18.089
			c-0.406-0.004-0.779-0.014-1.098-0.027c-0.027-0.184-0.041-0.303-0.088-0.584c0.406,0,0.697,0,0.816,0
			c0.053,0.174,0.164,0.41,0.365,0.609C18.157,18.089,18.157,18.089,18.161,18.089z M19.911,11.594c0,0,0.252,0.697,0.863,1.08
			c-0.231,0.314-0.445,0.584-0.602,0.761c-0.262-0.081-0.525-0.134-0.775-0.134c-0.377,0-0.709,0.057-1.014,0.134L19.911,11.594z
			 M17.928,9.947l0.697,0.584l-0.176,0.213l0.447,0.371l0.176-0.209l0.479,0.4l-0.684,0.82l-0.484-0.402l0.18-0.211l-0.447-0.371
			l-0.518,0.615l0.445,0.377l0.176-0.213l0.476,0.402l-0.685,0.816l-0.477-0.402l0.174-0.207l-0.447-0.373l-1.178,1.405
			c-0.012-0.012-0.014-0.023-0.031-0.039c-0.281-0.241-0.4-0.423-0.375-0.892L17.928,9.947z M9.733,14.067l0.123-0.084
			c0.246-0.174,0.621-0.432,0.576-0.702c-0.059-0.385-0.066-0.93,0.592-1.238c0.654-0.307,1.072,0.051,1.326,0.348
			c0.07,0.082,0.186,0.111,0.312,0.111c0.402,0,1.025-0.291,1.793-0.291c0.475,0,0.811,0.141,0.916,0.439
			c0.621,1.784,1.277,5.851,1.279,5.86c0,0-1.144,0.053-2.324,0.605c-1.031,0.479-1.967,1.393-1.967,1.393
			c-0.006-0.004-2.695-3.137-3.672-4.744C8.426,15.325,8.825,14.729,9.733,14.067z M10.842,20.71
			c0.074-0.092,0.26-0.314,0.524-0.625c0.186,0.221,0.262,0.316,0.385,0.453c-0.205,0.264-0.43,0.553-0.686,0.859
			c0,0,0-0.004,0-0.006C11.04,21.112,10.93,20.845,10.842,20.71z M10.28,20.722c0.238,0.197,0.373,0.457,0.373,0.711
			c0,0.705-0.488,1.127-0.957,1.127c-0.137,0-0.365-0.055-0.436-0.074c-0.07,0.035-0.297,0.148-0.506,0.148
			c-0.566,0-1.043-0.463-1.043-1.012c0-0.131,0.053-0.312,0.07-0.373c-0.033-0.066-0.137-0.285-0.15-0.422
			c-0.023-0.281,0.062-0.551,0.24-0.764c0.18-0.213,0.436-0.344,0.713-0.371c0.029-0.002,0.059-0.002,0.088-0.002
			c0.244,0,0.481,0.086,0.67,0.246c0.025,0.021,0.047,0.047,0.07,0.072l1.018-1.232c0,0,0.283,0.037,0.482,0.26
			c0.164,0.182,0.189,0.529,0.189,0.529l-0.906,1.098C10.227,20.683,10.256,20.7,10.28,20.722z M9.68,17.968
			c-0.098-0.051-0.201-0.088-0.316-0.088c-0.047,0-0.729,0.018-1.522,0.406c0-0.348,0-0.893,0-0.918c0.242,0,0.742,0,1.391,0
			C9.29,17.444,9.489,17.712,9.68,17.968z M6.305,18.104v-0.627h0.272v-0.58H5.768v0.58h0.275v0.625H4.977v-0.625H5.25l-0.002-0.58
			H4.977v-0.912h3.48c0.469,0.318,0.531,0.527,0.535,0.912H7.098v0.58H7.37v0.625L6.305,18.104z M3.803,27.819
			c0-0.565,0.336-1.057,0.99-1.465c0.242-0.148,0.404-0.219,0.645-0.318l0.99-0.434l0.416-0.215l-0.242,0.014
			c-1.566,0-2.291-0.391-2.291-1.229c0-0.168,0.133-0.35,0.352-0.35c0.19,0,0.344,0.156,0.344,0.35c0,0.106,0.027,0.184,0.092,0.248
			c0.287,0.287,1.197,0.287,1.496,0.287c0.879,0,1.699-0.381,2.26-0.719c-0.545-0.049-1.1-0.283-1.564-0.672
			c-0.598-0.502-0.951-1.148-1.018-1.879c-0.059-0.701,0.156-1.438,0.564-1.922c1.057-1.26,2.465-1.273,2.523-1.273
			c0.193,0,0.348,0.156,0.348,0.346c0,0.191-0.156,0.348-0.348,0.348c0,0-1.141,0.014-1.994,1.027
			c-0.221,0.266-0.457,0.791-0.402,1.412c0.053,0.543,0.316,1.029,0.771,1.406c0.145,0.121,0.67,0.517,1.326,0.517
			c0.549,0,1.059-0.275,1.514-0.818l0.09-0.072c0.522-0.568,1.213-1.422,1.389-1.654c0.178-0.232,0.746,0.16,0.508,0.461
			c-0.543,0.682-1.221,1.566-2.264,2.559c-0.125,0.119-0.125,0.119-0.143,0.129c-0.676,0.637-1.412,1.207-2.16,1.67
			c-0.945,0.492-1.191,0.619-1.27,0.652l0.002,0.004l-1.022,0.451c-0.25,0.102-0.356,0.146-0.547,0.264
			c-0.471,0.293-0.68,0.592-0.66,0.938c0.02,0.283,0.238,0.512,0.408,0.512c0.326,0,0.379-0.283,0.379-0.451
			c0-0.094,0.037-0.182,0.103-0.244c0.061-0.064,0.148-0.103,0.244-0.103c0.191,0,0.346,0.158,0.346,0.348
			c0,0.791-0.557,1.146-1.107,1.146C4.368,29.089,3.803,28.544,3.803,27.819z M7.333,21.36c0,0.004,0,0.008-0.002,0.012
			c0-0.004,0-0.008,0-0.012H7.333z M6.993,26.673c-0.381,0.397-0.361,0.406-0.715,0.824c-0.025-0.041-0.045-0.082-0.078-0.115
			c-0.133-0.133-0.258-0.201-0.42-0.201c-0.101,0,0.057-0.078,0.209-0.137C6.143,26.979,6.993,26.673,6.993,26.673z M26.256,69.907
			C12.208,69.989,0.713,58.63,0.629,44.583c-0.035-5.625,1.771-10.838,4.846-15.076c0.188-0.07,0.363-0.172,0.51-0.309
			c0.197-0.182,0.414-0.5,0.481-0.975c4.646-5.615,11.647-9.219,19.488-9.266c7.943-0.049,15.074,3.566,19.781,9.26
			c0.129,0.949,0.809,1.221,0.998,1.289c3.016,4.16,4.814,9.256,4.844,14.775C51.665,58.327,40.301,69.825,26.256,69.907z"/>
		<path fill="#2F7DE1" d="M45.45,44.448c0-10.643-8.656-19.301-19.299-19.301c-10.644,0-19.299,8.658-19.299,19.301
			s8.654,19.301,19.299,19.301C36.793,63.749,45.45,55.091,45.45,44.448z M25.842,63.114C15.776,62.952,7.62,54.782,7.485,44.704
			h18.357V63.114z M25.842,44.077H7.485c0.197-10.024,8.33-18.133,18.357-18.293V44.077z M26.475,25.784
			c10.02,0.172,18.145,8.277,18.344,18.293H26.475V25.784z M26.475,63.114v-18.41h18.344C44.682,54.772,36.536,62.94,26.475,63.114z
			"/>
		<path fill="#2F7DE1" d="M10.739,58.444c-0.072-0.082-0.232-0.293-0.414-0.5c-0.037-0.045-0.088-0.057-0.117-0.031
			c-0.029,0.023-0.012,0.07,0.017,0.104c0.223,0.254,0.223,0.305-0.258,0.723l-1.564,1.365c-0.041,0.037-0.062,0.047-0.174-0.084
			c-0.275-0.311-0.211-0.666,0.148-0.984c0.309-0.268,0.678-0.223,0.857-0.021c0.066,0.08,0.106,0.08,0.137,0.055
			c0.049-0.045-0.031-0.127-0.055-0.158c-0.402-0.461-1.008-0.52-1.463-0.127c-0.387,0.342-0.252,0.852,0.1,1.256
			c0.131,0.146,0.301,0.322,0.414,0.453c0.074,0.086,0.236,0.291,0.383,0.457c0.055,0.065,0.09,0.068,0.115,0.045
			c0.029-0.024,0.027-0.059-0.012-0.105c-0.17-0.195-0.186-0.277,0.033-0.469l1.516-1.326c0.396-0.346,0.473-0.344,0.619-0.174
			c0.031,0.035,0.066,0.057,0.092,0.033c0.031-0.027,0.031-0.07-0.022-0.121C10.989,58.704,10.805,58.519,10.739,58.444z"/>
		<path fill="#2F7DE1" d="M8.418,55.224C7.86,54.308,6.866,54.12,6.043,54.62c-0.814,0.496-0.99,1.371-0.445,2.271
			c0.656,1.08,1.697,1.014,2.309,0.643C8.541,57.149,9.049,56.265,8.418,55.224z M5.862,56.874
			c-0.348-0.574-0.143-1.322,0.641-1.799c1.012-0.613,1.471-0.111,1.615,0.127c0.414,0.676,0.082,1.428-0.644,1.867
			C6.61,57.601,6.104,57.272,5.862,56.874z"/>
		<path fill="#2F7DE1" d="M7.004,53.101c0.022,0.057,0.045,0.08,0.076,0.068c0.051-0.016,0.051-0.061,0.022-0.125
			c-0.07-0.205-0.152-0.389-0.162-0.422c-0.029-0.078-0.074-0.24-0.164-0.496C6.747,52.06,6.715,52.024,6.67,52.04
			c-0.023,0.01-0.031,0.041-0.012,0.1c0.088,0.24,0.061,0.363-0.316,0.512l-1.588,0.596l1.35-2.838
			c0.029-0.066,0.053-0.131,0.037-0.18c-0.016-0.041-0.07-0.057-0.162-0.023L3.5,51.052c-0.246,0.082-0.336,0.076-0.408-0.125
			c-0.025-0.062-0.051-0.086-0.082-0.08c-0.041,0.018-0.041,0.07-0.02,0.133c0.072,0.193,0.141,0.342,0.154,0.383
			c0.033,0.084,0.084,0.279,0.156,0.48c0.035,0.076,0.066,0.119,0.102,0.105c0.043-0.014,0.039-0.057,0.025-0.104
			c-0.098-0.264-0.059-0.338,0.236-0.449l1.707-0.66l-1.393,2.801c-0.029,0.064-0.07,0.174-0.051,0.244
			c0.02,0.045,0.086,0.045,0.174,0.014l2.4-0.828C6.897,52.833,6.932,52.897,7.004,53.101z"/>
		<path fill="#2F7DE1" d="M3.295,49.886c0.043-0.01,0.086-0.023,0.076-0.076c-0.006-0.037-0.037-0.057-0.076-0.055
			c-0.152,0.004-0.258-0.086-0.322-0.406l-0.121-0.588l2.035-0.352c0.645-0.113,0.705-0.084,0.746,0.146
			c0.01,0.047,0.023,0.084,0.068,0.07c0.037,0,0.055-0.035,0.043-0.107c-0.029-0.164-0.086-0.426-0.1-0.52
			c-0.022-0.119-0.055-0.377-0.102-0.645c-0.012-0.061-0.041-0.1-0.08-0.09c-0.041,0.004-0.047,0.049-0.039,0.092
			c0.057,0.33,0.025,0.377-0.656,0.496l-2.006,0.352l-0.076-0.5c-0.059-0.367,0.008-0.475,0.176-0.518
			c0.076-0.016,0.092-0.043,0.086-0.08c-0.01-0.033-0.037-0.045-0.098-0.041c-0.103,0.014-0.389,0.053-0.471,0.068
			c-0.082,0.012-0.109,0.033-0.104,0.072c0.01,0.033,0.068,0.123,0.115,0.385l0.318,1.85c0.037,0.201-0.012,0.344-0.004,0.383
			c0.004,0.037,0.029,0.045,0.103,0.055C2.838,49.886,3.194,49.903,3.295,49.886z"/>
		<path fill="#2F7DE1" d="M2.362,46.228c-0.01-0.232,0.055-0.264,0.209-0.281c0.139-0.018,0.248-0.018,0.875-0.055l0.727-0.035
			c0.398-0.02,0.727-0.037,0.893-0.021c0.188,0.008,0.217,0.066,0.225,0.238c0.002,0.051,0.018,0.09,0.053,0.088
			c0.043-0.002,0.066-0.037,0.062-0.111c-0.012-0.164-0.037-0.43-0.041-0.523c-0.008-0.113-0.002-0.377-0.014-0.652
			c-0.008-0.07-0.033-0.104-0.072-0.1c-0.041,0.002-0.057,0.047-0.053,0.09c0.012,0.234-0.012,0.352-0.176,0.369
			c-0.178,0.022-0.504,0.045-0.902,0.062L3.42,45.333c-0.629,0.029-0.744,0.041-0.871,0.035c-0.184-0.008-0.234-0.059-0.242-0.25
			c-0.002-0.037-0.014-0.088-0.07-0.084c-0.033,0.006-0.045,0.039-0.045,0.113c0.008,0.162,0.031,0.404,0.037,0.508
			c0.004,0.123,0.006,0.383,0.016,0.545c0.004,0.084,0.025,0.121,0.059,0.119C2.356,46.317,2.366,46.265,2.362,46.228z"/>
		<path fill="#2F7DE1" d="M2.241,43.78c0.033,0.004,0.053-0.029,0.057-0.088c0.02-0.293,0.072-0.328,0.494-0.299l1.852,0.129
			c0.576,0.039,0.596,0.102,0.578,0.311c-0.002,0.051,0.008,0.086,0.053,0.088c0.043,0.002,0.064-0.029,0.066-0.101
			c0.012-0.16,0.019-0.426,0.027-0.531c0.006-0.111,0.037-0.371,0.055-0.637c0.006-0.074-0.019-0.113-0.053-0.115
			c-0.047-0.004-0.059,0.037-0.062,0.086c-0.021,0.309-0.029,0.377-0.629,0.332L4.02,42.911C4.004,42.909,3.999,42.896,4,42.876
			c0.004-0.068,0.031-0.486,0.051-0.592c0.027-0.152,0.15-0.207,0.275-0.197c0.039,0.004,0.08-0.016,0.08-0.049
			c0.004-0.059-0.045-0.066-0.094-0.07c-0.316-0.021-0.473-0.082-0.555-0.086c-0.029-0.002-0.059,0.004-0.06,0.039
			c-0.004,0.061,0.117,0.066,0.105,0.262l-0.041,0.682c0,0.012-0.004,0.027-0.017,0.027l-1.201-0.084
			C2.52,42.806,2.51,42.794,2.51,42.778l0.055-0.629c0.012-0.156,0.078-0.23,0.129-0.25c0.047-0.021,0.102-0.017,0.152-0.017
			c0.061,0.004,0.09-0.016,0.092-0.053c0.002-0.039-0.031-0.059-0.072-0.066c-0.051-0.016-0.293-0.037-0.332-0.045
			c-0.055-0.01-0.104-0.025-0.156-0.039c-0.008-0.008-0.021-0.008-0.021-0.008c-0.041-0.002-0.068,0.012-0.07,0.047
			c-0.004,0.016,0.008,0.033,0.012,0.045l0.006,0.018c0.017,0.043,0.006,0.127,0.006,0.178c-0.006,0.094-0.057,0.941-0.068,1.102
			c-0.008,0.121-0.037,0.381-0.053,0.596C2.184,43.739,2.196,43.78,2.241,43.78z"/>
		<path fill="#2F7DE1" d="M2.61,40.575c0.043-0.23,0.111-0.246,0.268-0.229c0.141,0.016,0.248,0.041,0.867,0.156l0.715,0.135
			c0.393,0.074,0.711,0.137,0.871,0.19c0.178,0.051,0.193,0.115,0.162,0.285c-0.008,0.049-0.006,0.09,0.031,0.096
			c0.039,0.01,0.074-0.02,0.088-0.092c0.025-0.162,0.062-0.43,0.082-0.52c0.02-0.111,0.086-0.369,0.139-0.637
			c0.012-0.07-0.008-0.107-0.047-0.115c-0.037-0.008-0.065,0.031-0.072,0.074c-0.041,0.232-0.092,0.34-0.258,0.322
			c-0.174-0.023-0.502-0.08-0.893-0.154L3.85,39.948c-0.619-0.117-0.734-0.131-0.857-0.168c-0.176-0.049-0.209-0.109-0.174-0.299
			c0.006-0.037,0.006-0.09-0.051-0.098c-0.031,0-0.055,0.029-0.07,0.098c-0.029,0.16-0.062,0.4-0.084,0.506
			C2.59,40.106,2.532,40.36,2.5,40.521c-0.014,0.08,0,0.121,0.033,0.131C2.583,40.661,2.602,40.612,2.61,40.575z"/>
		<path fill="#2F7DE1" d="M4.43,38.56c1.113,0.398,1.908-0.322,2.246-1.307c0.088-0.254,0.168-0.568,0.162-0.75
			c-0.01-0.08-0.027-0.111-0.086-0.158c-0.121-0.088-0.447-0.254-0.498-0.271c-0.043-0.014-0.08-0.008-0.092,0.029
			c-0.014,0.043-0.002,0.055,0.062,0.104c0.295,0.205,0.363,0.436,0.17,0.994c-0.236,0.695-0.881,1.068-1.799,0.754
			c-0.728-0.277-1.113-0.766-0.855-1.518c0.16-0.465,0.498-0.873,0.914-0.732c0.068,0.025,0.113,0.014,0.129-0.027
			c0.012-0.041-0.019-0.072-0.086-0.1c-0.074-0.037-0.291-0.109-0.42-0.16c-0.133-0.057-0.176-0.084-0.207-0.096
			c-0.039-0.012-0.066,0.002-0.092,0.059c-0.088,0.203-0.287,0.463-0.445,0.924C3.213,37.239,3.471,38.233,4.43,38.56z"/>
		<path fill="#2F7DE1" d="M4.622,34.171c0.106-0.211,0.176-0.203,0.32-0.144c0.129,0.055,0.225,0.111,0.785,0.389l0.648,0.33
			c0.358,0.182,0.648,0.332,0.789,0.428c0.156,0.098,0.152,0.164,0.074,0.316c-0.025,0.045-0.035,0.086,0.004,0.104
			c0.033,0.014,0.074,0,0.106-0.064c0.07-0.15,0.182-0.393,0.225-0.479c0.051-0.098,0.188-0.33,0.311-0.572
			c0.033-0.062,0.023-0.104-0.014-0.121c-0.033-0.02-0.068,0.014-0.088,0.053C7.676,34.616,7.6,34.708,7.444,34.64
			c-0.16-0.068-0.457-0.213-0.812-0.393l-0.648-0.33c-0.561-0.285-0.666-0.334-0.775-0.402c-0.156-0.098-0.172-0.166-0.084-0.336
			c0.02-0.033,0.031-0.082-0.02-0.109c-0.033-0.01-0.062,0.014-0.094,0.076c-0.072,0.146-0.174,0.367-0.221,0.461
			c-0.055,0.109-0.186,0.336-0.258,0.477c-0.039,0.078-0.035,0.121-0.006,0.139C4.571,34.243,4.602,34.204,4.622,34.171z"/>
		<path fill="#2F7DE1" d="M7.969,33.313c0.17,0.26,0.182,0.383,0.035,0.592c-0.021,0.025-0.033,0.066,0.006,0.084
			c0.037,0.029,0.066,0.016,0.107-0.043c0.123-0.182,0.246-0.373,0.275-0.414c0.07-0.102,0.186-0.248,0.264-0.357
			c0.029-0.047,0.039-0.078,0-0.107c-0.037-0.025-0.062-0.01-0.119,0.074c-0.074,0.107-0.133,0.109-0.182,0.074
			c-0.037-0.025-0.106-0.1-0.168-0.192l-0.25-0.383c-0.01-0.016-0.008-0.031,0.004-0.045l0.584-0.824
			c0.012-0.021,0.023-0.027,0.035-0.023l0.738,0.176c0.035,0.012-0.064,0.197-0.074,0.219c-0.016,0.031-0.029,0.07,0.004,0.092
			c0.031,0.023,0.088-0.006,0.146-0.094c0.045-0.064,0.18-0.285,0.25-0.389c0.066-0.09,0.182-0.231,0.242-0.318
			c0.1-0.145,0.1-0.191,0.072-0.211c-0.039-0.024-0.061-0.008-0.088,0.031c-0.115,0.166-0.369,0.131-0.607,0.078
			c-0.672-0.135-2.436-0.545-2.68-0.596c-0.119-0.023-0.166-0.02-0.193,0.016c-0.025,0.037-0.004,0.096,0.072,0.219L7.969,33.313z
			 M8.282,31.679l-0.506,0.719l-0.715-1.031c-0.006-0.004-0.01-0.008-0.012-0.01l0.016,0.006L8.282,31.679z"/>
		<path fill="#2F7DE1" d="M9.604,27.187c0.215-0.182,0.281-0.176,0.557,0.154l0.791,0.941c0.619,0.742,1.232,0.799,1.912,0.23
			c0.73-0.611,0.598-1.297-0.008-2.023l-0.678-0.816c-0.268-0.32-0.307-0.373-0.106-0.541c0.049-0.045,0.057-0.078,0.033-0.108
			c-0.027-0.029-0.062-0.02-0.121,0.027c-0.125,0.106-0.242,0.221-0.357,0.311c-0.088,0.076-0.217,0.164-0.379,0.299
			c-0.061,0.049-0.072,0.09-0.049,0.113c0.024,0.029,0.064,0.027,0.111-0.014c0.238-0.199,0.287-0.146,0.555,0.168l0.726,0.879
			c0.524,0.641,0.639,1.057,0.17,1.451c-0.531,0.443-0.963,0.139-1.383-0.363l-0.775-0.926c-0.264-0.315-0.271-0.389-0.1-0.533
			c0.049-0.037,0.051-0.074,0.029-0.102c-0.023-0.033-0.064-0.029-0.125,0.023c-0.117,0.096-0.26,0.242-0.385,0.342
			c-0.168,0.145-0.309,0.238-0.478,0.381c-0.062,0.051-0.072,0.088-0.047,0.121C9.52,27.226,9.557,27.226,9.604,27.187z"/>
		<path fill="#2F7DE1" d="M14.661,26.382c0.195,0.365,0.135,0.41-0.053,0.516c-0.055,0.029-0.068,0.055-0.055,0.088
			c0.023,0.041,0.066,0.037,0.127,0c0.191-0.105,0.359-0.211,0.391-0.228c0.072-0.039,0.223-0.109,0.463-0.242
			c0.062-0.035,0.088-0.074,0.072-0.113c-0.018-0.023-0.049-0.025-0.102,0.002c-0.225,0.121-0.35,0.115-0.555-0.233l-0.84-1.475
			l3.014,0.887c0.07,0.02,0.143,0.031,0.184,0.008c0.039-0.021,0.045-0.078,0-0.164l-1.23-2.312
			c-0.121-0.232-0.127-0.324,0.059-0.426c0.06-0.031,0.08-0.062,0.062-0.09c-0.018-0.041-0.07-0.029-0.129,0
			c-0.18,0.1-0.314,0.193-0.352,0.215c-0.078,0.043-0.264,0.123-0.451,0.229c-0.072,0.047-0.108,0.084-0.088,0.117
			c0.021,0.041,0.061,0.031,0.103,0.008c0.248-0.137,0.328-0.111,0.486,0.162l0.914,1.582l-2.981-0.932
			c-0.068-0.02-0.184-0.045-0.246-0.01c-0.045,0.023-0.037,0.086,0.01,0.17L14.661,26.382z"/>
		<path fill="#2F7DE1" d="M17.415,22.249c0.219-0.08,0.268-0.027,0.334,0.113c0.057,0.125,0.088,0.234,0.31,0.822l0.246,0.684
			c0.137,0.375,0.246,0.685,0.287,0.846c0.045,0.18-0.004,0.227-0.168,0.285c-0.045,0.017-0.078,0.041-0.065,0.076
			c0.016,0.039,0.053,0.051,0.123,0.029c0.154-0.062,0.402-0.164,0.49-0.197c0.104-0.041,0.363-0.113,0.615-0.209
			c0.066-0.021,0.09-0.061,0.078-0.096c-0.014-0.041-0.061-0.041-0.104-0.024c-0.219,0.082-0.338,0.094-0.406-0.06
			c-0.07-0.162-0.188-0.467-0.324-0.842l-0.25-0.686c-0.213-0.59-0.26-0.695-0.293-0.82c-0.045-0.178-0.008-0.238,0.17-0.305
			c0.035-0.012,0.076-0.039,0.059-0.094c-0.018-0.027-0.051-0.031-0.119-0.008c-0.152,0.057-0.379,0.152-0.479,0.189
			c-0.113,0.039-0.363,0.117-0.514,0.172c-0.08,0.027-0.107,0.065-0.096,0.096C17.327,22.267,17.379,22.261,17.415,22.249z"/>
		<path fill="#2F7DE1" d="M19.374,21.495c0.268-0.057,0.398,0.043,0.521,0.219l1.615,2.326c0.074,0.104,0.129,0.154,0.176,0.143
			c0.059-0.01,0.084-0.076,0.117-0.24l0.562-2.672c0.072-0.338,0.123-0.443,0.318-0.484c0.061-0.012,0.084-0.033,0.076-0.07
			c-0.008-0.041-0.053-0.053-0.123-0.039c-0.119,0.027-0.223,0.062-0.375,0.098c-0.115,0.025-0.234,0.035-0.439,0.078
			c-0.09,0.02-0.131,0.051-0.117,0.092c0.004,0.035,0.051,0.041,0.098,0.031c0.131-0.029,0.205-0.014,0.213,0.035
			c0.006,0.031,0.008,0.094,0,0.147l-0.369,2.16l-1.086-1.656c-0.086-0.139-0.145-0.242-0.156-0.289
			c-0.02-0.092,0.092-0.111,0.162-0.131c0.049-0.01,0.078-0.033,0.066-0.072c-0.006-0.037-0.064-0.047-0.125-0.035
			c-0.205,0.045-0.398,0.102-0.502,0.123c-0.141,0.027-0.377,0.064-0.596,0.111c-0.074,0.018-0.127,0.049-0.115,0.088
			C19.301,21.495,19.333,21.505,19.374,21.495z"/>
		<path fill="#2F7DE1" d="M23.639,20.7c0.232-0.014,0.324,0.035,0.338,0.207c0.008,0.135,0.019,0.244,0.059,0.871l0.049,0.73
			c0.012,0.219,0.018,0.424,0.029,0.588c0.029,0.469,0,0.516-0.234,0.529c-0.047,0.002-0.08,0.021-0.078,0.061
			c0.002,0.037,0.031,0.059,0.102,0.053c0.168-0.01,0.434-0.035,0.525-0.043c0.447-0.027,0.857-0.033,1.262-0.055
			c0.088-0.014,0.123-0.043,0.144-0.135c0.008-0.088,0.025-0.369,0.02-0.463c-0.004-0.055-0.012-0.1-0.064-0.09
			c-0.041,0.006-0.051,0.031-0.061,0.08c-0.016,0.168-0.055,0.244-0.152,0.299c-0.104,0.051-0.42,0.078-0.521,0.086
			c-0.301,0.019-0.34,0.01-0.357-0.274c-0.01-0.121-0.031-0.488-0.062-0.953c0-0.012,0.006-0.023,0.023-0.023
			c0.029-0.002,0.492-0.022,0.568-0.027c0.195-0.012,0.244,0.15,0.252,0.274c0.004,0.029,0.02,0.06,0.061,0.059
			c0.057,0,0.057-0.059,0.057-0.105c-0.016-0.219,0.016-0.521,0.012-0.578c-0.004-0.037-0.024-0.053-0.053-0.053
			c-0.029,0.002-0.049,0.043-0.102,0.084c-0.031,0.025-0.133,0.086-0.355,0.102c-0.176,0.012-0.383,0.02-0.443,0.023
			c-0.022,0-0.033-0.004-0.033-0.027l-0.074-1.109c0-0.018,0.008-0.023,0.008-0.023c0.816-0.051,0.848-0.029,0.898,0.24
			c0.008,0.035,0.012,0.078,0.061,0.076c0.045-0.006,0.066-0.033,0.062-0.072c-0.021-0.338,0.019-0.459,0.018-0.541
			c-0.004-0.035-0.018-0.061-0.051-0.061c-0.031,0.002-0.102,0.053-0.246,0.061c-0.076,0.004-0.908,0.057-1.043,0.066
			c-0.117,0.01-0.377,0.014-0.605,0.027c-0.078,0.006-0.109,0.029-0.106,0.068C23.545,20.692,23.573,20.704,23.639,20.7z"/>
		<path fill="#2F7DE1" d="M26.795,23.628c0.166,0.019,0.428,0.023,0.51,0.031c0.059,0.006,0.367,0.049,0.613,0.068
			c0.072,0.01,0.102-0.02,0.104-0.051c0.004-0.035-0.027-0.055-0.06-0.061c-0.332-0.029-0.363-0.117-0.32-0.553l0.057-0.643
			c0-0.01,0-0.01,0.012-0.008l0.363,0.045c0.033,0,0.055,0.02,0.062,0.037c0.137,0.197,0.242,0.402,0.354,0.59
			c0.289,0.484,0.512,0.738,0.971,0.779l0.396,0.039c0.065,0.006,0.102-0.006,0.106-0.053c0.004-0.039-0.025-0.059-0.066-0.062
			c-0.326-0.029-0.6-0.248-1.334-1.48c0.422-0.252,0.592-0.559,0.621-0.869c0.051-0.586-0.467-0.81-1.002-0.861
			c-0.125-0.012-0.445-0.024-0.586-0.037c-0.09-0.006-0.35-0.041-0.57-0.065c-0.082-0.006-0.111,0.014-0.117,0.047
			c-0.006,0.039,0.025,0.062,0.084,0.068c0.322,0.027,0.326,0.098,0.291,0.471l-0.18,1.969c-0.039,0.404-0.076,0.498-0.312,0.477
			c-0.051-0.006-0.092,0.01-0.094,0.047C26.692,23.595,26.727,23.622,26.795,23.628z M27.838,20.843
			c0-0.027,0.008-0.057,0.242-0.033c0.357,0.033,0.596,0.328,0.553,0.785c-0.037,0.375-0.209,0.658-0.582,0.621
			c-0.231-0.021-0.328-0.057-0.322-0.131L27.838,20.843z"/>
		<path fill="#2F7DE1" d="M30.918,24.251c0.539,0.133,1.121-0.072,1.26-0.635c0.232-0.945-0.955-1.381-0.811-1.979
			c0.051-0.228,0.268-0.357,0.557-0.287c0.316,0.076,0.476,0.352,0.42,0.572c-0.008,0.041-0.004,0.096,0.043,0.107
			c0.045,0.012,0.076-0.021,0.102-0.125c0.078-0.318,0.115-0.428,0.127-0.479c0.006-0.021,0-0.053-0.037-0.076
			c-0.088-0.062-0.274-0.141-0.545-0.207c-0.572-0.141-1.041,0.088-1.148,0.553c-0.223,0.912,0.949,1.312,0.775,2.021
			c-0.049,0.205-0.281,0.402-0.631,0.315c-0.41-0.098-0.531-0.451-0.461-0.736c0.012-0.043,0.012-0.088-0.039-0.101
			c-0.043-0.01-0.082,0.033-0.102,0.101l-0.152,0.562C30.241,23.982,30.508,24.151,30.918,24.251z"/>
		<path fill="#2F7DE1" d="M32.874,24.755c0.16,0.051,0.414,0.133,0.502,0.168c0.105,0.039,0.348,0.147,0.604,0.242
			c0.066,0.027,0.111,0.012,0.123-0.027c0.014-0.033-0.021-0.064-0.064-0.08c-0.219-0.082-0.32-0.148-0.27-0.311
			c0.051-0.17,0.16-0.479,0.301-0.856l0.252-0.68c0.223-0.59,0.26-0.703,0.312-0.816c0.08-0.166,0.146-0.189,0.324-0.121
			c0.035,0.012,0.088,0.018,0.107-0.029c0.008-0.035-0.02-0.062-0.088-0.088c-0.15-0.057-0.381-0.133-0.482-0.17
			c-0.113-0.041-0.356-0.145-0.504-0.201c-0.08-0.027-0.123-0.021-0.135,0.01c-0.02,0.047,0.025,0.074,0.059,0.088
			c0.221,0.08,0.225,0.152,0.18,0.305c-0.037,0.135-0.082,0.238-0.295,0.826l-0.258,0.682c-0.141,0.377-0.254,0.682-0.33,0.83
			c-0.082,0.168-0.148,0.17-0.312,0.111c-0.045-0.017-0.086-0.019-0.1,0.016C32.786,24.691,32.807,24.729,32.874,24.755z"/>
		<path fill="#2F7DE1" d="M34.893,25.411c-0.021,0.037-0.002,0.07,0.061,0.105c0.148,0.082,0.379,0.199,0.469,0.248
			c0.178,0.101,0.484,0.328,0.75,0.476c0.912,0.518,1.904,0.445,2.451-0.521c0.547-0.983,0.012-1.766-1.084-2.379
			c-0.219-0.119-0.455-0.238-0.568-0.303c-0.101-0.057-0.326-0.201-0.517-0.309c-0.07-0.041-0.108-0.037-0.129-0.002
			c-0.02,0.033-0.002,0.062,0.055,0.092c0.197,0.113,0.254,0.207,0.17,0.357c-0.066,0.119-0.115,0.221-0.424,0.77l-0.354,0.635
			c-0.508,0.904-0.568,0.943-0.727,0.854C34.958,25.386,34.916,25.374,34.893,25.411z M36.083,25.187l0.943-1.676
			c0.065-0.113,0.09-0.141,0.34,0.004c0.797,0.443,1.109,1.211,0.676,2.012c-0.453,0.815-1.004,0.932-1.77,0.504
			C35.799,25.769,35.815,25.661,36.083,25.187z"/>
		<path fill="#2F7DE1" d="M38.233,27.29c-0.029-0.024-0.062-0.039-0.086,0c-0.029,0.035-0.018,0.064,0.037,0.111
			c0.166,0.139,0.348,0.275,0.387,0.307c0.1,0.08,0.23,0.209,0.332,0.295c0.041,0.033,0.074,0.047,0.107,0.008
			c0.029-0.033,0.016-0.061-0.062-0.125c-0.102-0.084-0.1-0.141-0.059-0.186c0.025-0.035,0.109-0.098,0.207-0.154l0.402-0.213
			c0.014-0.008,0.029-0.002,0.041,0.008l0.773,0.652c0.018,0.014,0.023,0.025,0.02,0.039l-0.24,0.719
			c-0.014,0.037-0.191-0.082-0.211-0.094c-0.029-0.016-0.066-0.033-0.094-0.004c-0.023,0.031,0,0.09,0.082,0.156
			c0.059,0.051,0.273,0.205,0.365,0.283c0.084,0.07,0.213,0.201,0.295,0.27c0.137,0.111,0.186,0.113,0.207,0.09
			c0.023-0.039,0.016-0.059-0.025-0.092c-0.152-0.127-0.096-0.377-0.023-0.611c0.193-0.656,0.756-2.377,0.826-2.617
			c0.031-0.117,0.031-0.16,0.002-0.195c-0.035-0.027-0.096-0.014-0.223,0.055l-2.469,1.315C38.551,27.454,38.43,27.45,38.233,27.29z
			 M40.842,26.569c0.008-0.004,0.008-0.008,0.012-0.014l-0.006,0.016l-0.422,1.189l-0.674-0.568L40.842,26.569z"/>
		<path fill="#2F7DE1" d="M41.319,29.946c-0.065-0.078-0.098-0.107-0.133-0.078c-0.031,0.025-0.027,0.066,0.02,0.121
			c0.105,0.131,0.279,0.324,0.344,0.4c0.131,0.158,0.332,0.48,0.525,0.717c0.666,0.814,1.621,1.103,2.477,0.396
			c0.865-0.713,0.648-1.639-0.15-2.606c-0.158-0.191-0.336-0.389-0.418-0.486c-0.074-0.094-0.23-0.309-0.369-0.475
			c-0.055-0.064-0.092-0.076-0.121-0.053c-0.031,0.027-0.027,0.059,0.02,0.109c0.141,0.176,0.158,0.283,0.025,0.393
			c-0.102,0.084-0.188,0.164-0.672,0.564l-0.561,0.463C41.504,30.075,41.436,30.087,41.319,29.946z M42.372,30.091l1.488-1.219
			c0.103-0.086,0.135-0.098,0.32,0.125c0.578,0.701,0.594,1.529-0.1,2.119c-0.719,0.594-1.275,0.506-1.832-0.17
			C41.903,30.528,41.954,30.437,42.372,30.091z"/>
		<path fill="#2F7DE1" d="M45.729,37.198c0.059,0.053,0.096,0.066,0.17,0.059c0.15-0.018,0.502-0.119,0.551-0.141
			c0.041-0.017,0.068-0.047,0.051-0.082c-0.02-0.041-0.039-0.045-0.119-0.033c-0.356,0.047-0.559-0.074-0.801-0.619
			c-0.295-0.672-0.074-1.383,0.818-1.775c0.721-0.285,1.336-0.186,1.656,0.541c0.197,0.447,0.223,0.98-0.176,1.156
			c-0.066,0.029-0.094,0.068-0.076,0.108c0.018,0.041,0.062,0.041,0.129,0.016c0.082-0.02,0.289-0.113,0.418-0.164
			c0.137-0.049,0.188-0.059,0.219-0.07c0.033-0.02,0.045-0.047,0.029-0.106c-0.078-0.207-0.105-0.541-0.303-0.984
			c-0.398-0.904-1.26-1.459-2.186-1.053c-1.09,0.461-1.189,1.531-0.77,2.488C45.446,36.778,45.598,37.065,45.729,37.198z"/>
		<path fill="#2F7DE1" d="M46.049,37.774c-0.004-0.031-0.029-0.07-0.068-0.053c-0.043,0.01-0.053,0.039-0.033,0.109
			c0.049,0.211,0.115,0.434,0.127,0.479c0.029,0.125,0.062,0.303,0.096,0.436c0.014,0.053,0.031,0.082,0.082,0.07
			c0.039-0.01,0.045-0.041,0.021-0.139c-0.031-0.127,0.004-0.172,0.062-0.184c0.043-0.012,0.145-0.016,0.26-0.002l0.445,0.067
			c0.02,0,0.029,0.017,0.033,0.033l0.236,0.98c0.004,0.023,0,0.035-0.008,0.041l-0.619,0.439c-0.035,0.02-0.105-0.18-0.117-0.199
			c-0.014-0.031-0.033-0.068-0.072-0.059c-0.037,0.01-0.051,0.072-0.024,0.172c0.018,0.076,0.096,0.326,0.125,0.445
			c0.025,0.107,0.053,0.287,0.078,0.391c0.043,0.172,0.078,0.205,0.109,0.197c0.043-0.02,0.047-0.041,0.039-0.09
			c-0.051-0.195,0.143-0.359,0.342-0.506c0.545-0.416,2.016-1.469,2.215-1.619c0.094-0.074,0.123-0.109,0.117-0.154
			c-0.014-0.043-0.07-0.068-0.213-0.09l-2.766-0.4C46.209,38.095,46.112,38.021,46.049,37.774z M48.581,38.739
			c0.01-0.002,0.018-0.004,0.018-0.004l0,0l-0.018,0.012l-1.043,0.707l-0.205-0.857L48.581,38.739z"/>
		<path fill="#2F7DE1" d="M49.391,41.013c-0.043,0.002-0.088,0.014-0.084,0.066c0.006,0.041,0.035,0.059,0.072,0.062
			c0.152,0.01,0.25,0.105,0.287,0.434l0.07,0.594l-2.061,0.178c-0.652,0.057-0.711,0.021-0.73-0.213
			c-0.004-0.047-0.018-0.088-0.064-0.074c-0.039-0.004-0.057,0.033-0.051,0.102c0.016,0.17,0.049,0.432,0.057,0.525
			c0.01,0.121,0.02,0.385,0.045,0.654c0.004,0.062,0.029,0.104,0.068,0.098c0.045,0,0.053-0.045,0.051-0.09
			c-0.029-0.334,0.006-0.381,0.695-0.44l2.031-0.174l0.033,0.504c0.025,0.371-0.051,0.475-0.219,0.498
			c-0.078,0.014-0.096,0.037-0.096,0.076c0.01,0.033,0.035,0.047,0.096,0.047c0.104-0.004,0.395-0.016,0.473-0.025
			c0.086-0.006,0.115-0.025,0.107-0.062c0-0.035-0.055-0.131-0.078-0.395l-0.158-1.873c-0.018-0.203,0.043-0.344,0.041-0.381
			c-0.006-0.039-0.027-0.047-0.102-0.064C49.848,41.054,49.497,41.003,49.391,41.013z"/>
		<path fill="#2F7DE1" d="M50.592,47.144c-0.02-0.029-0.355-0.619-0.508-0.855c-0.025-1.078-0.816-1.57-1.475-1.629
			c-0.744-0.062-1.682,0.352-1.785,1.562c-0.092,1.066,0.602,1.812,1.557,1.893c0.939,0.08,1.59-0.504,1.699-1.516
			c0.092,0.326,0.205,0.756,0.203,0.766c0.008,0.049,0.072,0.074,0.119,0.047c0.094-0.051,0.123-0.061,0.17-0.094
			C50.608,47.29,50.641,47.231,50.592,47.144z M49.864,46.401c-0.062,0.67-0.662,1.156-1.588,1.074
			c-1.172-0.102-1.248-0.775-1.223-1.059c0.066-0.787,0.779-1.203,1.627-1.125C49.696,45.378,49.905,45.935,49.864,46.401z"/>
		<path fill="#2F7DE1" d="M49.471,49.562c-0.076,0.287-0.139,0.271-0.607,0.15l-1.576-0.408c-0.65-0.168-0.729-0.205-0.662-0.457
			c0.016-0.049,0.012-0.088-0.029-0.094c-0.041-0.01-0.07,0.012-0.088,0.088c-0.043,0.158-0.096,0.416-0.119,0.508
			c-0.084,0.326-0.182,0.588-0.332,1.174c-0.057,0.211-0.043,0.256,0.045,0.307c0.111,0.062,0.463,0.188,0.502,0.199
			c0.068,0.016,0.098,0.006,0.107-0.031c0.014-0.053-0.029-0.07-0.062-0.084c-0.268-0.121-0.355-0.229-0.242-0.66
			c0.133-0.51,0.186-0.543,0.74-0.4l1.574,0.41c0.512,0.129,0.518,0.166,0.451,0.43c-0.018,0.064,0,0.096,0.035,0.105
			c0.031,0.014,0.061-0.012,0.078-0.088c0.045-0.16,0.109-0.457,0.135-0.551c0.023-0.111,0.109-0.359,0.152-0.555
			c0.023-0.072,0.016-0.111-0.025-0.123C49.51,49.472,49.489,49.497,49.471,49.562z"/>
		<path fill="#2F7DE1" d="M48.475,52.862c-0.088,0.217-0.16,0.217-0.309,0.168c-0.133-0.041-0.234-0.088-0.814-0.322l-0.674-0.271
			c-0.371-0.15-0.674-0.273-0.82-0.355c-0.162-0.086-0.166-0.152-0.1-0.314c0.016-0.043,0.021-0.084-0.016-0.1
			c-0.035-0.012-0.072,0.008-0.101,0.074c-0.057,0.154-0.146,0.406-0.182,0.494c-0.043,0.104-0.154,0.344-0.26,0.594
			c-0.027,0.068-0.014,0.109,0.023,0.125c0.033,0.012,0.066-0.021,0.084-0.062c0.088-0.217,0.158-0.312,0.314-0.262
			c0.17,0.057,0.475,0.174,0.844,0.326l0.674,0.273c0.58,0.236,0.693,0.277,0.805,0.334c0.164,0.084,0.185,0.152,0.111,0.326
			c-0.012,0.037-0.021,0.086,0.029,0.107c0.033,0.008,0.059-0.016,0.088-0.086c0.062-0.149,0.146-0.377,0.186-0.475
			c0.043-0.113,0.154-0.352,0.211-0.5c0.033-0.076,0.029-0.121-0.004-0.133C48.52,52.786,48.491,52.825,48.475,52.862z"/>
		<path fill="#2F7DE1" d="M46.301,54.474c-1.016-0.611-1.939-0.065-2.465,0.842c-0.137,0.229-0.277,0.518-0.307,0.699
			c-0.008,0.082,0,0.119,0.053,0.176c0.102,0.109,0.389,0.334,0.436,0.363c0.039,0.021,0.076,0.027,0.096-0.01
			c0.025-0.037,0.016-0.055-0.041-0.113c-0.248-0.262-0.27-0.498,0.029-1.014c0.369-0.633,1.074-0.869,1.916-0.381
			c0.658,0.416,0.939,0.973,0.537,1.658c-0.246,0.422-0.662,0.762-1.039,0.539c-0.062-0.037-0.109-0.037-0.133,0
			c-0.02,0.041,0.004,0.074,0.062,0.115c0.068,0.053,0.266,0.166,0.383,0.242c0.119,0.082,0.156,0.117,0.185,0.133
			c0.035,0.017,0.065,0.012,0.1-0.037c0.125-0.184,0.375-0.402,0.623-0.824C47.233,56.009,47.176,54.983,46.301,54.474z"/>
		<path fill="#2F7DE1" d="M43.237,57.198c-0.146-0.275-0.145-0.398,0.017-0.592c0.025-0.023,0.041-0.062,0-0.086
			c-0.029-0.029-0.06-0.02-0.109,0.037c-0.137,0.164-0.277,0.348-0.311,0.387c-0.08,0.096-0.211,0.229-0.293,0.33
			c-0.037,0.041-0.051,0.076-0.014,0.108c0.037,0.027,0.062,0.016,0.127-0.062c0.086-0.102,0.143-0.098,0.189-0.059
			c0.033,0.027,0.094,0.109,0.152,0.207l0.211,0.402c0.01,0.017,0.002,0.031-0.01,0.047l-0.656,0.768
			c-0.014,0.018-0.025,0.023-0.037,0.02l-0.717-0.242c-0.039-0.016,0.08-0.191,0.09-0.211c0.018-0.029,0.037-0.066,0.006-0.092
			c-0.029-0.025-0.088,0-0.156,0.08c-0.051,0.059-0.205,0.27-0.287,0.361c-0.07,0.086-0.201,0.215-0.266,0.297
			c-0.117,0.135-0.117,0.186-0.094,0.203c0.037,0.025,0.061,0.018,0.092-0.021c0.127-0.154,0.377-0.094,0.613-0.023
			c0.656,0.199,2.377,0.77,2.615,0.84c0.117,0.035,0.16,0.035,0.191,0.002c0.029-0.033,0.016-0.094-0.051-0.223L43.237,57.198z
			 M43.975,59.231l-0.016-0.002L42.77,58.8l0.578-0.67l0.615,1.094c0.008,0.008,0.012,0.008,0.018,0.014L43.975,59.231z"/>
		<path fill="#2F7DE1" d="M15.165,62.218c-0.215-0.129-0.451-0.256-0.561-0.32c-0.1-0.061-0.32-0.207-0.506-0.322
			c-0.072-0.041-0.111-0.037-0.131-0.006c-0.019,0.035-0.004,0.062,0.053,0.096c0.195,0.119,0.248,0.213,0.16,0.361
			c-0.068,0.115-0.123,0.217-0.443,0.756l-0.371,0.625c-0.529,0.891-0.588,0.924-0.748,0.83c-0.082-0.049-0.129-0.062-0.15-0.021
			c-0.021,0.035-0.004,0.066,0.059,0.105c0.141,0.084,0.373,0.207,0.459,0.258c0.174,0.105,0.475,0.34,0.734,0.496
			c0.9,0.543,1.897,0.496,2.463-0.459C16.756,63.655,16.239,62.858,15.165,62.218z M15.61,64.413
			c-0.478,0.799-1.033,0.902-1.783,0.455c-0.465-0.273-0.445-0.381-0.166-0.85l0.984-1.645c0.068-0.115,0.094-0.137,0.344,0.01
			C15.768,62.849,16.061,63.624,15.61,64.413z"/>
		<path fill="#2F7DE1" d="M19.592,64.306c-0.072-0.025-0.855-0.315-0.979-0.359c-0.109-0.041-0.354-0.141-0.564-0.219
			c-0.072-0.027-0.111-0.02-0.127,0.02c-0.012,0.035,0.008,0.061,0.068,0.082c0.221,0.08,0.287,0.164,0.225,0.324
			c-0.043,0.127-0.078,0.232-0.297,0.82l-0.252,0.689c-0.076,0.201-0.15,0.395-0.205,0.551c-0.164,0.438-0.213,0.467-0.43,0.385
			c-0.049-0.016-0.084-0.012-0.098,0.025c-0.014,0.035,0.006,0.064,0.072,0.088c0.156,0.061,0.408,0.143,0.498,0.174
			c0.418,0.156,0.797,0.318,1.176,0.459c0.084,0.023,0.125,0.008,0.182-0.065c0.047-0.076,0.172-0.326,0.207-0.416
			c0.021-0.049,0.029-0.094-0.019-0.106c-0.041-0.018-0.061,0.006-0.088,0.049c-0.084,0.146-0.152,0.197-0.262,0.209
			c-0.115,0.008-0.414-0.096-0.514-0.135c-0.279-0.104-0.312-0.127-0.217-0.391c0.045-0.117,0.172-0.459,0.332-0.896
			c0.004-0.012,0.014-0.02,0.029-0.014c0.029,0.012,0.459,0.182,0.531,0.209c0.184,0.066,0.162,0.23,0.119,0.352
			c-0.01,0.025-0.006,0.061,0.031,0.076c0.053,0.018,0.078-0.033,0.09-0.072c0.08-0.209,0.23-0.473,0.248-0.525
			c0.016-0.037,0-0.061-0.029-0.068c-0.025-0.01-0.059,0.019-0.123,0.037c-0.041,0.008-0.158,0.023-0.365-0.053
			c-0.168-0.061-0.358-0.139-0.416-0.162c-0.017-0.006-0.029-0.014-0.02-0.037l0.383-1.039c0.006-0.016,0.012-0.02,0.023-0.016
			c0.76,0.281,0.775,0.312,0.715,0.578c-0.004,0.033-0.021,0.076,0.023,0.092c0.041,0.014,0.072-0.002,0.088-0.041
			c0.117-0.314,0.205-0.408,0.234-0.486c0.012-0.031,0.008-0.06-0.021-0.072C19.809,64.341,19.729,64.358,19.592,64.306z"/>
		<path fill="#2F7DE1" d="M25.456,65.431c-0.219-0.037-0.518-0.172-1.004-0.219c-0.981-0.098-1.889,0.383-1.986,1.389
			c-0.133,1.174,0.75,1.787,1.787,1.889c0.266,0.025,0.588,0.033,0.766-0.014c0.076-0.029,0.106-0.055,0.137-0.123
			c0.055-0.139,0.141-0.492,0.145-0.549c0.006-0.043-0.008-0.076-0.045-0.08c-0.045-0.006-0.059,0.008-0.088,0.084
			c-0.133,0.33-0.338,0.451-0.932,0.395c-0.727-0.072-1.236-0.615-1.145-1.578c0.104-0.771,0.494-1.26,1.281-1.182
			c0.488,0.049,0.965,0.285,0.924,0.723c-0.008,0.07,0.01,0.113,0.055,0.115c0.045,0.004,0.068-0.033,0.08-0.102
			c0.018-0.084,0.039-0.311,0.059-0.447c0.025-0.143,0.041-0.191,0.043-0.223C25.536,65.468,25.518,65.446,25.456,65.431z"/>
		<path fill="#2F7DE1" d="M30.528,68.054c-0.238,0.025-0.334,0.006-0.379-0.178c-0.041-0.178-0.078-0.502-0.119-0.881l-0.08-0.723
			c-0.07-0.621-0.082-0.734-0.084-0.871c-0.01-0.178,0.041-0.23,0.23-0.254c0.065-0.006,0.09-0.031,0.086-0.064
			c-0.004-0.039-0.041-0.055-0.111-0.049c-0.164,0.018-0.426,0.059-0.525,0.066c-0.115,0.016-0.377,0.033-0.604,0.059
			c-0.07,0.008-0.107,0.029-0.102,0.066c0.002,0.039,0.037,0.059,0.1,0.051c0.203-0.023,0.318-0.012,0.346,0.189
			c0.02,0.135,0.037,0.244,0.105,0.867l0.02,0.182c0,0.014-0.002,0.018-0.014,0.02l-1.568,0.17c-0.012,0-0.018-0.004-0.02-0.016
			l-0.018-0.178c-0.07-0.625-0.082-0.734-0.088-0.869c-0.008-0.184,0.043-0.234,0.225-0.252c0.074-0.01,0.098-0.033,0.094-0.072
			c-0.004-0.039-0.041-0.053-0.117-0.051c-0.16,0.02-0.418,0.064-0.518,0.074c-0.115,0.014-0.381,0.025-0.604,0.051
			c-0.078,0.008-0.109,0.035-0.101,0.072c0.002,0.039,0.037,0.059,0.098,0.053c0.221-0.025,0.316,0.012,0.344,0.184
			c0.027,0.131,0.031,0.242,0.101,0.873l0.082,0.723c0.039,0.377,0.078,0.701,0.072,0.871c-0.002,0.186-0.029,0.232-0.225,0.254
			c-0.047,0.004-0.084,0.02-0.08,0.064c0.004,0.037,0.039,0.057,0.109,0.051c0.168-0.02,0.426-0.059,0.525-0.07
			c0.115-0.014,0.377-0.031,0.646-0.061c0.065-0.006,0.106-0.035,0.1-0.074c-0.006-0.039-0.045-0.049-0.09-0.047
			c-0.238,0.027-0.332,0.023-0.383-0.176c-0.033-0.174-0.072-0.5-0.113-0.875l-0.029-0.248c0-0.01,0.006-0.016,0.016-0.018
			l1.57-0.174c0,0,0.012,0.006,0.012,0.01l0.025,0.254c0.045,0.377,0.082,0.701,0.076,0.877c0,0.176-0.02,0.229-0.223,0.254
			c-0.049,0.002-0.088,0.02-0.084,0.062c0.004,0.033,0.041,0.059,0.119,0.049c0.162-0.017,0.42-0.057,0.518-0.074
			c0.115-0.006,0.377-0.023,0.648-0.055c0.072-0.008,0.102-0.039,0.1-0.07C30.612,68.056,30.571,68.05,30.528,68.054z"/>
		<path fill="#2F7DE1" d="M33.52,67.237c-0.227,0.066-0.342,0.072-0.4-0.082c-0.061-0.17-0.158-0.482-0.272-0.865l-0.207-0.695
			c-0.178-0.604-0.215-0.713-0.242-0.838c-0.033-0.18,0.006-0.24,0.188-0.293c0.037-0.012,0.082-0.033,0.066-0.088
			c-0.016-0.031-0.051-0.037-0.121-0.018c-0.154,0.045-0.385,0.127-0.486,0.156c-0.117,0.035-0.371,0.1-0.525,0.143
			c-0.08,0.023-0.109,0.057-0.102,0.09c0.014,0.045,0.066,0.043,0.102,0.031c0.225-0.066,0.27-0.01,0.326,0.137
			c0.049,0.129,0.076,0.238,0.258,0.838l0.205,0.697c0.113,0.385,0.207,0.695,0.23,0.863c0.039,0.178-0.014,0.225-0.18,0.271
			c-0.049,0.016-0.08,0.035-0.07,0.074c0.014,0.037,0.051,0.053,0.121,0.035c0.156-0.055,0.41-0.141,0.5-0.166
			c0.107-0.031,0.367-0.092,0.629-0.168c0.066-0.021,0.094-0.057,0.082-0.096C33.61,67.228,33.563,67.224,33.52,67.237z"/>
		<path fill="#2F7DE1" d="M36.963,65.249c-0.027-0.059-0.055-0.078-0.09-0.061c-0.051,0.023-0.033,0.07-0.027,0.105
			c0.076,0.281,0.047,0.418-0.359,0.602c-0.477,0.219-0.535,0.195-0.774-0.324l-0.678-1.479c-0.217-0.478-0.193-0.508,0.055-0.621
			c0.06-0.027,0.078-0.059,0.06-0.098c-0.012-0.031-0.049-0.035-0.121-0.006c-0.15,0.072-0.422,0.207-0.51,0.246
			c-0.105,0.049-0.352,0.141-0.529,0.229c-0.072,0.027-0.094,0.062-0.078,0.098c0.018,0.035,0.049,0.037,0.109,0.008
			c0.273-0.121,0.299-0.061,0.5,0.379l0.678,1.48c0.279,0.607,0.297,0.693,0.059,0.801c-0.045,0.021-0.076,0.047-0.053,0.086
			c0.018,0.035,0.053,0.043,0.123,0.01c0.15-0.068,0.381-0.186,0.469-0.225c0.309-0.141,0.574-0.232,1.125-0.482
			c0.197-0.088,0.223-0.125,0.205-0.229C37.108,65.644,36.981,65.294,36.963,65.249z"/>
		<path fill="#2F7DE1" d="M39.981,63.448c-0.031-0.045-0.059-0.078-0.1-0.045c-0.037,0.021-0.031,0.053-0.012,0.102
			c0.068,0.152,0.072,0.236,0.016,0.332c-0.064,0.1-0.324,0.275-0.414,0.336c-0.248,0.162-0.287,0.178-0.441-0.061
			c-0.068-0.104-0.271-0.406-0.529-0.797c-0.004-0.008-0.008-0.021,0.008-0.031c0.029-0.018,0.418-0.262,0.48-0.305
			c0.164-0.105,0.283,0.006,0.354,0.111c0.018,0.023,0.049,0.041,0.082,0.023c0.045-0.033,0.021-0.082-0.004-0.121
			c-0.123-0.184-0.248-0.461-0.277-0.51c-0.02-0.031-0.049-0.033-0.072-0.016c-0.023,0.014-0.02,0.061-0.045,0.121
			c-0.016,0.039-0.072,0.141-0.258,0.264c-0.148,0.1-0.322,0.207-0.375,0.242c-0.018,0.012-0.031,0.014-0.041-0.006l-0.611-0.924
			c-0.01-0.018-0.01-0.023,0-0.033c0.678-0.441,0.711-0.439,0.887-0.23c0.025,0.023,0.049,0.06,0.092,0.031
			c0.035-0.024,0.039-0.057,0.02-0.088c-0.188-0.285-0.211-0.41-0.256-0.48c-0.02-0.025-0.043-0.045-0.07-0.025
			c-0.027,0.018-0.062,0.094-0.186,0.174c-0.064,0.045-0.756,0.502-0.869,0.576c-0.098,0.062-0.32,0.197-0.514,0.324
			c-0.064,0.041-0.078,0.08-0.057,0.111c0.021,0.033,0.053,0.033,0.109-0.006c0.193-0.127,0.299-0.131,0.393,0.016
			c0.072,0.107,0.141,0.199,0.486,0.723l0.404,0.613c0.119,0.178,0.229,0.352,0.32,0.49c0.258,0.393,0.254,0.447,0.061,0.576
			c-0.043,0.025-0.062,0.057-0.041,0.092c0.021,0.031,0.059,0.035,0.117-0.008c0.139-0.088,0.355-0.246,0.434-0.297
			c0.371-0.244,0.725-0.455,1.064-0.678c0.072-0.053,0.082-0.098,0.057-0.182C40.157,63.778,40.032,63.526,39.981,63.448z"/>
	</g>
	<g>
		<path fill="#7F4098" d="M299.34,40.739V33.78h13.756v9.389c0,0-3.56-0.164-7.607-1.133
			C301.442,41.065,299.34,40.739,299.34,40.739"/>
		<rect x="313.096" y="19.534" fill="#7F4098" width="18.617" height="14.246"/>
		<path fill="#7F4098" d="M299.34,48.833v4.047h13.756v9.066c0,0,1.619,1.457,8.418,0.971c6.795-0.486,10.199-2.754,10.199-2.754
			v-6.797h13.598c0,0-4.311-11.816-15.215-11.816c-5.85,0-9.715,7.283-19.025,7.283H299.34z"/>
		<path fill="#7F4098" d="M331.713,33.78h13.598v16.35c0,0-2.572-7.463-5.348-10.359C336.411,36.05,331.713,33.78,331.713,33.78"/>
		<path fill="#AE91B9" d="M331.713,33.78c0,0,0.971-5.666,5.666-9.875c4.691-4.207,10.522-7.121,15.375-7.121h8.256v11.33
			c0,0-5.176-1.619-10.521-1.455c-5.344,0.16-11.33,2.268-13.92,3.885c-2.588,1.617-4.209,3.236-4.209,3.236H331.713z"/>
		<path fill="#AE91B9" d="M299.34,53.044c0,0,6.473,8.578,18.127,8.578c11.654,0,14.244-1.619,14.244-1.619v10.199h-12.949
			c-12.549,0-19.422-14.731-19.422-14.731V53.044z"/>
		<path fill="#AE91B9" d="M313.096,33.78c0,0,3.723-1.615,9.065-1.615c7.932,0,13.062,2.012,17.113,6.311
			c5.518,5.859,6.037,11.654,6.037,11.654v3.236c0,0-8.746-10.922-15.867-10.922c-7.119,0-16.348,3.641-16.348,3.641V33.78z"/>
		<path fill="#FFFFFF" d="M299.34,40.255c0,0,5.826,1.697,13.596,1.697c7.768,0,18.777-8.172,18.777-8.172h0.646
			c0,0-4.695,7.607-8.418,10.521c-3.721,2.912-11.168,5.828-16.674,5.828c-5.502,0-7.928-0.971-7.928-0.971V40.255z"/>
	</g>
	<line fill="none" stroke="#55565A" stroke-width="0.5" stroke-miterlimit="10" x1="62.344" y1="44.629" x2="288.145" y2="44.629"/>
</g>
</svg>
