<?xml version="1.0" encoding="utf-8"?>
<!-- Generator: Adobe Illustrator 17.0.0, SVG Export Plug-In . SVG Version: 6.00 Build 0)  -->
<!DOCTYPE svg PUBLIC "-//W3C//DTD SVG 1.1//EN" "http://www.w3.org/Graphics/SVG/1.1/DTD/svg11.dtd">
<svg version="1.1" id="Capa_1" xmlns="http://www.w3.org/2000/svg" xmlns:xlink="http://www.w3.org/1999/xlink" x="0px" y="0px"
	 width="286px" height="72px" viewBox="0 0 286 72" enable-background="new 0 0 286 72" xml:space="preserve">
<g>
	<g>
		<path fill="#ffffff" d="M88.473,16.864h6.18c4.381,0,7.66,1.701,7.66,6.053v0.125c0,3.752-2.459,5.486-5.832,5.959l7.156,10.402
			h-1.955l-7.061-10.277h-4.383v10.277h-1.766V16.864z M94.747,27.708c3.625,0,5.801-1.387,5.801-4.666v-0.125
			c0-3.469-2.301-4.604-5.801-4.604h-4.508v9.395H94.747z"/>
		<path fill="#ffffff" d="M105.276,31.333v-0.252c0-4.981,3.152-8.416,7.566-8.416c3.971,0,7.219,2.584,7.219,8.037v0.6H107.01
			c0.062,4.414,2.176,6.936,6.084,6.936c2.742,0,4.602-1.135,5.17-3.436h1.67c-0.693,3.152-3.311,4.854-6.84,4.854
			C108.334,39.655,105.276,36.282,105.276,31.333z M118.327,29.946c-0.158-4.004-2.27-5.863-5.484-5.863
			c-3.184,0-5.453,2.27-5.77,5.863H118.327z"/>
		<path fill="#ffffff" d="M122.614,31.397v-0.254c0-5.074,3.311-8.479,7.66-8.479c3.248,0,5.076,1.859,6.021,3.908V15.036h1.672
			v24.367h-1.672v-3.814c-0.883,1.986-3.184,4.066-6.273,4.066C125.831,39.655,122.614,36.63,122.614,31.397z M136.327,31.271
			v-0.252c0-4.539-2.457-6.936-5.895-6.936c-3.531,0-6.084,2.553-6.084,6.998v0.252c0,4.508,2.553,6.904,5.832,6.904
			C133.522,38.237,136.327,35.81,136.327,31.271z"/>
		<path fill="#ffffff" d="M149.442,31.397v-0.254c0-5.074,3.311-8.479,7.66-8.479c3.248,0,5.076,1.859,6.021,3.908V15.036h1.672
			v24.367h-1.672v-3.814c-0.883,1.986-3.184,4.066-6.273,4.066C152.659,39.655,149.442,36.63,149.442,31.397z M163.155,31.271
			v-0.252c0-4.539-2.457-6.936-5.895-6.936c-3.531,0-6.084,2.553-6.084,6.998v0.252c0,4.508,2.553,6.904,5.832,6.904
			C160.35,38.237,163.155,35.81,163.155,31.271z"/>
		<path fill="#ffffff" d="M168.61,31.333v-0.252c0-4.981,3.152-8.416,7.566-8.416c3.973,0,7.221,2.584,7.221,8.037v0.6h-13.053
			c0.062,4.414,2.176,6.936,6.084,6.936c2.742,0,4.604-1.135,5.17-3.436h1.672c-0.693,3.152-3.311,4.854-6.842,4.854
			C171.668,39.655,168.61,36.282,168.61,31.333z M181.663,29.946c-0.158-4.004-2.271-5.863-5.486-5.863
			c-3.184,0-5.453,2.27-5.77,5.863H181.663z"/>
		<path fill="#ffffff" d="M193.579,32.94h1.734c0.379,2.838,1.955,5.266,6.652,5.266c3.529,0,5.832-2.049,5.832-4.824
			c0-3.152-1.514-4.256-6.053-4.949c-4.918-0.725-7.283-2.363-7.283-5.926c0-3.5,2.869-5.895,7.094-5.895
			c4.191,0,6.746,2.08,7.25,5.674h-1.607c-0.535-2.807-2.301-4.225-5.643-4.225c-3.469,0-5.455,1.607-5.455,4.318
			c0,2.459,1.23,3.783,5.928,4.477c5.043,0.758,7.471,2.176,7.471,6.4c0,3.562-2.994,6.398-7.533,6.398
			C196.385,39.655,194.051,36.63,193.579,32.94z"/>
		<path fill="#ffffff" d="M212.495,34.958c0-3.814,3.656-4.98,7.723-4.98h3.438v-1.48c0-3.09-1.262-4.414-4.162-4.414
			c-2.49,0-4.256,1.072-4.635,3.5h-1.639c0.379-3.469,3.217-4.918,6.336-4.918c3.438,0,5.77,1.639,5.77,5.832v10.906h-1.67v-2.521
			c-1.041,1.607-2.807,2.773-5.58,2.773C214.827,39.655,212.495,38.079,212.495,34.958z M223.655,34.075v-2.805h-3.373
			c-3.438,0-6.117,0.725-6.117,3.688c0,2.113,1.324,3.342,4.035,3.342C221.227,38.3,223.655,36.534,223.655,34.075z"/>
		<path fill="#ffffff" d="M230.274,15.036h1.703v24.367h-1.703V15.036z"/>
		<path fill="#ffffff" d="M236.926,33.351V22.917h1.672v10.34c0,3.498,1.639,4.949,4.508,4.949c2.68,0,5.391-1.797,5.391-5.266
			V22.917h1.67v16.486h-1.67v-3.152c-0.758,1.797-2.869,3.404-5.77,3.404C239.323,39.655,236.926,37.89,236.926,33.351z"/>
		<path fill="#ffffff" d="M253.981,31.397v-0.254c0-5.074,3.311-8.479,7.66-8.479c3.248,0,5.076,1.859,6.021,3.908V15.036h1.672
			v24.367h-1.672v-3.814c-0.883,1.986-3.184,4.066-6.273,4.066C257.198,39.655,253.981,36.63,253.981,31.397z M267.694,31.271
			v-0.252c0-4.539-2.459-6.936-5.895-6.936c-3.531,0-6.084,2.553-6.084,6.998v0.252c0,4.508,2.553,6.904,5.832,6.904
			C264.889,38.237,267.694,35.81,267.694,31.271z"/>
	</g>
	<g>
		<path fill="#ffffff" d="M62.344,62.843V49.854h5.242v12.691c0,3.547,1.127,5.096,4.28,5.096c3.087,0,4.439-1.371,4.439-5.273
			V49.854h5.242v12.811c0,5.811-3.505,8.818-9.715,8.818C65.786,71.483,62.344,68.505,62.344,62.843z"/>
		<path fill="#ffffff" d="M83.226,60.64v-0.238c0-6.467,4.89-10.875,11.42-10.875c5.533,0,9.65,2.502,10.198,7.748h-5.339
			c-0.388-2.564-1.933-3.933-4.827-3.933c-3.634,0-5.951,2.621-5.951,7.031v0.236c0,4.412,2.188,6.973,5.984,6.973
			c2.861,0,4.857-1.34,5.275-4.08h5.115c-0.58,5.273-4.664,7.982-10.327,7.982C87.248,71.483,83.226,67.194,83.226,60.64z"/>
	</g>
	<g>
		<path fill="#ffffff" d="M121.11,62.313c-0.033-1.783,1.533-3.172,3.424-3.172c1.893,0,3.426,1.389,3.426,3.141
			c0,1.783-1.5,3.174-3.426,3.174C122.643,65.456,121.11,64.097,121.11,62.313z"/>
	</g>
	<path fill="#ffffff" d="M162.342,56.745h-1.035c-0.721-4.268-4.705-5.838-8.625-5.838c-4.348,0-8.561,3.111-8.561,8.861
		c0,5.572,3.527,10.637,9.18,10.637c2.451,0,6.23-1.303,9.041-5.332v3.498c-3.43,2.25-6.59,3.08-10.088,3.08
		c-11.303,0-12.971-7.941-12.971-11.172c0-4.801,3.76-10.699,13.92-10.699c2.059,0,6.035,0.533,9.139,1.662V56.745z"/>
	<path fill="#ffffff" d="M164.612,69.69c1.924-0.025,2.455-0.67,2.455-2.172V54.384c0-1.5-0.531-2.145-2.455-2.172v-0.805h8.633
		v0.805c-1.92,0.027-2.451,0.672-2.451,2.172v5.414h11.082v-5.414c0-1.5-0.533-2.145-2.453-2.172v-0.805h8.631v0.805
		c-1.922,0.027-2.453,0.672-2.453,2.172v13.135c0,1.502,0.531,2.146,2.453,2.172v0.803h-8.631V69.69
		c1.92-0.025,2.453-0.67,2.453-2.172v-6.596h-11.082v6.596c0,1.502,0.531,2.146,2.451,2.172v0.803h-8.633V69.69z"/>
	<path fill="#ffffff" d="M198.415,60.792c-0.592,0-1.389-0.082-1.949-0.189v-8.283c0.414-0.08,0.736-0.108,1.268-0.108
		c3.842,0,4.938,2.922,4.938,4.879C202.67,59.69,201.075,60.792,198.415,60.792 M218.227,52.212v-0.805h-8.629v0.805
		c1.916,0.027,2.449,0.672,2.449,2.172v13.135c-0.096,1.131-0.873,1.836-1.953,1.977c-1.393-0.258-3.07-1.344-4.574-3.566
		l-3.119-4.898c2.869-0.805,4.111-2.842,4.111-4.664c0-2.627-1.625-4.959-6.77-4.959c-1.92,0-8.066,0.029-9.457,0v0.805
		c1.92,0.027,2.453,0.672,2.453,2.172v13.135c0,1.502-0.533,2.146-2.453,2.172v0.803h8.631V69.69
		c-1.922-0.025-2.451-0.67-2.451-2.172v-5.924c1.979,0.027,2.393-0.143,3.633,2.242l1.154,2.225
		c1.654,3.191,3.277,4.426,7.211,4.426h1.125l0,0c3.145,0.004,8.639,0.006,8.639,0.006V69.69c-1.924-0.025-2.455-0.67-2.455-2.172
		V54.384C215.772,52.884,216.303,52.239,218.227,52.212"/>
	<path fill="#ffffff" d="M266.86,51.407v0.805c2.051,0,2.414,0.697,2.443,2.307l0.084,3.887c0.027,1.178,0.057,2.252,0.057,3.752
		c0,4.666-1.74,7.668-6.627,7.668c-3.145,0-5.812-2.174-5.812-6.193v-9.248c0-1.5,0.506-2.145,2.332-2.172v-0.805l-26.014,0.029
		c-1.471-0.305-3.17-0.377-4.43-0.377c-6.59,0-7.447,4.209-7.447,5.576c0,5.951,10.787,5.736,10.787,10.025
		c0,1.475-1.418,3.164-4.314,3.164c-2.039,0-4.936-1.395-5.646-4.504h-1.031v4.639c2.1,0.533,4.668,0.885,6.559,0.885
		c4.906,0,7.391-2.521,7.391-5.686c0-5.977-10.965-6.324-10.965-10.24c0-1.445,1.42-2.979,3.812-2.842
		c5.67,0.332,5.285,4.531,5.285,4.531h1.127c0,0-0.705-3.851,3.99-3.859h3.35v14.77c0,1.502-0.535,2.146-2.455,2.172v0.803h8.629
		V69.69c-1.922-0.025-2.451-0.67-2.451-2.172v-14.77h3.9c2.205,0,3.719,0.516,4.055,3.33v6.883c0,5.736,3.959,7.883,9.154,7.883
		c6.178,0,7.889-3.941,7.947-7.858l0.109-8.604c0.027-1.5,0.506-2.145,2.332-2.172v-0.805H266.86z"/>
	<path fill="#ffffff" d="M274.194,65.321h1.035c0.709,3.109,3.604,4.504,5.646,4.504c2.895,0,4.315-1.689,4.315-3.164
		c0-4.289-10.791-4.074-10.791-10.025c0-1.367,0.859-5.576,7.449-5.576c1.596,0,3.9,0.16,5.559,0.695v4.748h-1.006
		c-0.326-2.738-2.275-4.426-5.408-4.426c-2.395,0-3.812,1.396-3.812,2.842c0,3.916,10.965,4.264,10.965,10.24
		c0,3.164-2.483,5.686-7.389,5.686c-1.895,0-4.463-0.352-6.562-0.885V65.321z"/>
	<line fill="none" stroke="#ffffff" stroke-width="0.5" stroke-miterlimit="10" x1="62.344" y1="44.629" x2="288.145" y2="44.629"/>
</g>
</svg>
